<mxfile host="Electron" agent="Mozilla/5.0 (Macintosh; Intel Mac OS X 10_15_7) AppleWebKit/537.36 (KHTML, like Gecko) draw.io/24.7.17 Chrome/128.0.6613.36 Electron/32.0.1 Safari/537.36" version="24.7.17">
  <diagram name="Page-1" id="KoMGqLpwK3aKk_hQyOWJ">
    <mxGraphModel dx="1593" dy="949" grid="1" gridSize="10" guides="1" tooltips="1" connect="1" arrows="0" fold="1" page="1" pageScale="1" pageWidth="1200" pageHeight="1600" math="1" shadow="0">
      <root>
        <mxCell id="0" />
        <mxCell id="1" style="" parent="0" />
        <mxCell id="3tAOK4Fq8SH2DW3hNeqI-8" value="" style="group" parent="1" vertex="1" connectable="0">
          <mxGeometry x="289" y="791" width="1167" height="540" as="geometry" />
        </mxCell>
        <mxCell id="3tAOK4Fq8SH2DW3hNeqI-5" value="" style="shape=image;verticalLabelPosition=bottom;labelBackgroundColor=default;verticalAlign=top;aspect=fixed;imageAspect=0;image=data:image/png,iVBORw0KGgoAAAANSUhEUgAABI8AAAIJCAIAAACjroqqAAAACXBIWXMAABcSAAAXEgFnn9JSAAAAB3RJTUUH6AoPBx0Frlm1rgAAACR0RVh0U29mdHdhcmUATUFUTEFCLCBUaGUgTWF0aFdvcmtzLCBJbmMuPFjdGAAAACJ0RVh0Q3JlYXRpb24gVGltZQAxNS1PY3QtMjAyNCAxNjoyOTowNTm7K4UAACAASURBVHic7N17XFR14v/xzzCAIHJTvEAi4A1NwBtIqCSYSjdNk5Rcs9RN025uQd5yFTcFxZXyQqKppWviNVttvaQC3kXNLHBFUzERBVHwBsow8vtj+s2X5eYQM3OGOa/nw8f3ceacz3zOG7/OLu89n3NGUVZWJgAAAAAAJsZC6gAAAAAAgCrQ1gAAAADAFNHWAAAAAMAU0dYAAAAAwBTR1gAAAADAFFlKHQDQm2+++ebcuXPPP/98nz59pM4CAAAA1BVtDWbi0KFDc+fOFUK0bt2atgYAAAAzwEpImIPCwsIpU6ZInQIAAADQJ9oazMGMGTNu3rwpdQoAAABAn2hrqPe2bt26Z88ed3d3qYMAAAAA+kRbQ/2WnZ392WeftWvXLioqSuosAAAAgD7R1lCPqdXqqKgolUr1z3/+09raWuo4AAAAgD7R1lCPrVix4qeffvroo4+8vb2lzgIAAADoGW0N9VVGRsbixYt79uz51ltvSZ0FAAAA0D/aGuqlhw8fRkZG2tnZzZs3T6FQSB0HAAAA0D++HRv10vz58y9durRo0aJmzZpJnQUAAAAwCK6tof45ePDgunXrhg4dGhYWJnUWAAAAwFC4tgZTdP78+cePH1fY2ahRo5YtWxYUFEyZMqVVq1affvqpJNkAAAAA41CUlZVJnQH10qNHjzZu3Lhz585Zs2a1b99el7cUFxdv2rTpzJkzubm5Pj4+vXr18vf3t7W1rTyyS5cuxcXFFXY2bNjw9OnTn3766aZNm9zc3Hx9fcsfzc7OzsjIEEJ4eHh06NBBCDFnzhx7e/s/+eMBAAAAUuPaGmqtuLh4/fr1K1euzM/PF0Lcvn1bl3cdOHBg6tSpmrcoFIoTJ06sXr3aw8Nj1apVLVu21GUGzdW2mzdvCiFycnJycnKqHHblypUrV64IIaKiomhrAAAAqL9oa6iFBw8e/Otf/1q9enVBQUGt3picnPz++++rVKpWrVp9/vnn7du3P3z4cHR09JUrV4YPH75y5UrN1TCtefPmFRUVVZhEqVQKIXx8fB48eFD5FIWFhRcuXBBCtGzZ0tXVVQhhY2NTq5AAAACASWElJGph5MiR6enpHTp0SE9PV6lUmp3ffPPNM888U8O7MjIyhg8frlKplErljh07Wrdurdl/9uzZ8PBwtVrt7Oy8b98+Ozu7umRLTk5+5513hBCRkZFvv/12XaYCAAAATAHPhEQtxMfHHz9+PCkpacyYMbq/KzY2VlPtRowYoa1qQoinn366X79+QoiCgoK1a9fqPS0AAABQr9HWUAtNmzZt0KCBEKJr1646vmXfvn1paWma7fDw8ApHtXtWrVpV5fpGAAAAQLZoa/gzHB0ddRy5bt06zYaDg0PlR0d27dpVoVAIIe7cucPlNQAAAKA82pp5WrZsWXJycq3ecvDgwS+//FLHwZaWOj2fpri4+MSJE5rtbt26WVhU/Pdmb2/v4eGh2aatAQAAAOXR1szT3r1733333W3btuk4/j//+c/48eP37dun43jN4xmf6OjRoyUlJZptNze3Ksd06tRJs5Gfn3/37l0dA1QWGhqamZmZmZnJI0YAAABgHmhr5umrr77q0KHDlClTNmzY8MTB27Zti4yM7NChw8qVK/Ub49SpU9ptJyenKsc0adJEu52dna3fAAAAAED9RVszT05OTt98803nzp1nzpxZ8wrDTZs2TZ061dfX95tvvtH9bjQdab7JWsPZ2bnKMY0aNdJu09YAAAAALdqa2bK3t1+9erW/v/9nn3321VdfVTnm22+/nTFjhr+//+rVq+3t7fWe4fbt29rt6q6tlT8vbQ0AAADQoq2Zs4YNG65YsaJXr15xcXFLly6tcHT16tXR0dE9e/ZcsWJFw4YNDRFAl7am+UoAjWvXrhkiBgAAAFAf0dbMnK2t7bJly0JDQxctWrRw4ULt/sTExNjY2NDQ0GXLltnY2Bjo7GVlZdrt6grho0ePtNvFxcUGSgIAAADUO7Q182dtbb1kyZKwsLDExMSYmBghxOLFixcuXBgWFrZkyRJra2uDnlq7Xfnx/RrlG1p197YBAAAAMqTTt2ahvrO0tIyPj588efLXX3994sSJjIyMgQMHzps3T8cH8f9pzZs3124XFRVVOYa2BgAAAFSJa2tyoVQqY2Nj3d3dMzIy3N3dY2NjDV3VxP+2tTt37lQ5hrYGAAAAVIm2JhdqtXry5MlXr17t1KnT1atXp0yZolarDX3SFi1aaLera2vln0RS3TdoAwAAADJEW5MFlUr14Ycf7tixY/To0Vu3bn3//fe3b98+adIklUpl0PO2bdtWu52Xl1flmN9++02zYWNj061bN4PmAQAAAOoR2pr5e/To0bvvvvvjjz9OmDBhypQpQoj33nsvMjJyz5497777bvlHMupd7969XVxcNNsnT56sPECtVmdlZWm2AwICyj/NHwAAAJA52pqZKy4uHjduXGpq6t/+9rdJkyZp97/99tvTp09PTU0dP3684Z6br1QqBw8erNn++eefHz58WGHA77//XlJSotnu06ePgWIAAAAA9RFtzZzdv39/zJgxx44dmzZt2jvvvFPh6KhRo2bPnn3s2LGxY8fev3+/VjM/fvy4yu3KwsPDNRsqleqnn36qcPTgwYOajaZNm2pHAgAAABA8wV8S2dnZV69e1WWkr69vo0aN/txZ7ty5M3bs2PT09Ojo6IiIiCrHDB8+vEGDBtOmTXvrrbdWrVrl4OCg4+TaC2IVtivz8vLq16/f3r17hRAbNmzo2bOn9lBZWdmWLVs02++//76tra2OZwcAAADkgLYmgSlTppw4cUKXkcuWLQsNDf0Tp7h169bo0aN/++232NhY7VrEKg0ePLhBgwYff/zxyJEjv/7668aNG+syf25urnb7+vXrNQ+Ojo4+depUQUHBrl27kpOTtT/RsmXLzp07J4To2bMnF9YAAACAChRlZWVSZ5CXixcvvvjii7qMtLCwOHjwoPYpHbUyZMiQ8+fPL1iw4IUXXtBl/L59+z788MP27dtv3bq1hmFFRUXXrl27fPnynDlzbty4odnp5OT097//vX379k899VTDhg2rfOPp06fHjRt39+5dBweHYcOG9ejRY9euXZpzPfPMM4mJiTY2NrX8EQEAAAAzR1sztjlz5qxZs0aXkT169Fi7du2fO0tCQoKvr29wcLDubzly5Mjp06fffffdGsb8+9//joqKqu7o/PnzX3nlleqOXrhwYfbs2Wlpado9Dg4O48ePHzVqlLW1te45AQAAAJmgrRnVw4cPg4OD79696+/vP3ToUC8vL3t7e6VSWX7Mvn374uLihBAzZ84cMWKEREkNJTMz8/z58/fu3Wvbtq2Pj0911+IAAAAAcN+aUe3cufPu3bvjx4+fNGmShUXVD+TMzMwUQlhYWAwYMMC46YzB29vb29tb6hQAAABAPUBbM6qtW7eGhYV99NFH1Q0oKSlJTk4WQgQEBPy5O9YAAAAAmAfamlHNnj27adOmNQw4fPjwvXv3hBA6Ph0EAAAAgLmirRmVl5dXzQN27dolhFAqlWa5DBIAAACA7qq+dQqSUKlU+/btE0L06NGjSZMmUscBAAAAICXamglhGSQAAAAALdqaCWEZJAAAAAAt2pqp0C6DfOaZZ5ydnaWOAwAAAEBiPGXEVBw5cuTu3btCiOeff/5PvF2eX2KWnb3W1jatSZPFUgfB/zh/PrN9ezn+gwQAABqaLxBG3dHWTMXu3btF3ZZByvBTERoqQkJ6zJz5ntRB9MDb29ts/j+oUMjxXyPMgzl9EoF6io+hGZDnVQQDYSWkSSgtLf3xxx+FEEFBQU5OTlLHAQAAACA92ppJOHr0qGYZJE+DBAAAAKBBWzMJO3fuFEJYWlr2799f6iwAAAAATAJtTXqlpaV79+4VQgQFBTk6OkodBwAAAIBJoK1J79ixY3fu3BEsgwQAAABQDm1NeiyDBAAAAFAZbU1iarVaswyyV69eDg4OUscBAAAAYCpoaxI7duxYYWGhYBkkAAAAgP9FW5PYrl27hBBWVlbPPfec1FkgJc3XowOQFp9EQHJ8DIHyaGtSUqvVmi/F7t27N8sgAQAAAJRHW5PS8ePHCwoKBMsgAQAAAFRiKXUAWXN2dp44caIQgmWQAAAAACqgrUmpY8eOHTt2lDoFAAAAAFPESkgAAAAAMEW0NQAAAAAwRbQ1AAAAADBFtDUAAAAAMEW0NQAAAAAwRbQ1AAAAADBFtDUAAAAAMEW0NQAAAAAwRbQ1AAAAADBFtDUAAAAAMEW0NQAAAAAwRbQ1AAAAADBFtDUAAAAAMEW0NQAAAAAwRbQ1AAAAADBFllIHMCHjx49v3rx5mzZtWrdu3aZNG1dXV4VCIXUoAAAAADIli7ZWUFCQk5Nz/fr1nJycnJycVq1ajRgxovKw4ODgs2fPfv/995mZmaWlpba2tl5eXtry1rp163bt2hk/PAAAAAB5Mtu29umnn2rq2fXr14uLi4UQSqXS09PT09OzQ4cOVb5l5MiRmo2HDx+eOnVq586dO3bsOHv2rHZAZmamEZIDAAAAgDDjtrZp0ybNhrW19Wuvvfb88893797d1tZWl/fa2Nj06tWrV69eUVFRM2fO3LlzpyGTAgAAAEAVzLataXh5eSUmJnp4ePy5tzs6On7++edWVlb//ve/9RsMAAAAAGpmzs+EtLKyqktV05o9e7a9vb1eIgEAAACAjsy5rb3wwgt1r2pCCFtb20GDBtV9HgAAAADQnTm3tWeffVZfUwUFBelrKgAAAADQhTm3tbZt2+prqtatW+trKgAAAADQhTk/ZaRZs2YV9hQUFDzzzDM1v+uXX35p0KBBhZ0uLi76TAYAAAAAT2LOba3yo0GcnZ3Pnj17//79rKysbdu2rV+/vqyszMLCYsSIEa+88oqnp6ednZ1Sqaw8lZ2dnVEiAwAAAMAfzLmtWVlZVd6pVCodHR07d+7cuXNnIcS33347cuTI6dOn1zyVpaU5/0UBAAAAMEHmfN+aQqGoecCrr74qhBgyZIhR4gAAAABALZhzW3sizfP93d3dpQ4CAAAAABXJuq01atRI+38BAAAAwKTIuq1ZWFgIHRZMAgAAAIDxmXNbKy0t1ddUxcXF+poKAAAAAHRhzm3thx9+ePz4cd3nUavVe/furfs8AAAAAKA7c34w/SeffPLJJ588cZi3t7cRwgAAAABArZjztTUAAAAAqL9oawAAAABgimhrAAAAAGCKzPm+tSFDhnz22WeWlnX9GVUq1YwZM7777ju9pAIAAAAAXZjztbURI0bUvaoJIaysrF5//fW6zwMAAAAAujPntubl5WWCUwEAAACALsy2rQUFBTVs2FBfs9nZ2QUFBelrNgAAAAB4IrO9b+3rr7/W42xKpVK/EwIAAABAzcz22hoAAAAA1Gu0NQAAAAAwRWa7ErK2bt68uWnTpgMHDly6dOn+/fvOzs4dOnQICwsbNGiQjY2N1OkAAAAAyI55trWIiIji4uIqD1lYWCxatMjd3V27R61Wf/nll4mJiSUlJdqd+fn5hw4dOnTo0JIlS+Li4gIDAw0eGgAAAADKMc+2FhYWFhcXp1ary+/09PTs3r37U0895ejoqN2pUqnef//95OTk6qbKzc196623pk6dOmrUKAMmBgAAAID/ZZ5tbfTo0X5+fpMmTcrLy1MqlS+//PLo0aM7duxYeeQ//vGP8lVNqVSGh4cPGjSoffv2SqXy0qVL27dv37BhQ0xMTOvWrXv37m3EHwIAAACArJlnWxNCeHl5WVpaenh4LFy40MfHp8oxp06d2rBhg/ali4vL8uXLO3XqpN3j6+vr6+s7YsSIiRMnRkVF7d27187OzuDRAQAAAMCMnwk5Y8YMKyurjRs3VlfVhBArVqzQbltaWlaoalqenp5fffVVWVnZ5s2bDZIVAAAAACoxz7Z27ty55OTkJUuWODk5VTemqKjo0KFD2pdDhw6tsqppuLm5jR079scff9RzUAAAAACohnm2te3bt7/wwgvt27evYczp06dVKpX25csvv1zznAMGDDh//rx+8gEAAADAk5hnW0tLSwsLC6t5zE8//aTdtra27ty5c83j3dzcHjx4oIdwAAAAAKAD82xrOTk5fn5+NY8p39Z8fX0bNGhQ8/gHDx7UsK4SAAAAAPTLPJ8JWVhY2Lhx4xoGqNXqn3/+WfsyICDgiXPm5+c7OzvrIVz1ioqKjh07lpaWlpOTk5+fr1Ao1qxZo1QqDXpSAAAAAKbJPNuatbV1UVGRtbV1dQPOnTtXVFSkfalLWztz5oyrq6t+8lWSn5+fmJi4YcOGR48eCSE6duzYpUuXtm3bKhQKA50RAAAAgIkzz7bm5eWVkZHRq1ev6gZU+Ebsrl27PnHOgwcPPnF15Z+TlJQUGxtbXFwshAgODp4+fbqXl5chTgQAAACgHjHPttanT59//etf1bU1lUqVlJSkfdmjR48nfuf1jRs39uzZs2nTJn2mFEKlUs2ePXvjxo1CCEtLy48//nj06NFcTwMAAAAgzPUpIxEREYcPH16/fn3lQ2VlZVOmTLl586Z2z+uvv/7ECefMmdOhQ4cavpDtTygtLX3nnXc0Vc3BwWHDhg1jxoyhqgEAAADQMM+21rx586lTp86aNSs2Nvbu3bva/Tdv3pw0adKOHTu0e3r27PnEZ/1/9dVXe/bs+dvf/qbfkJ9++qn267ljYmJ8fHz0Oz8AAACAes08V0IKIV5//fWMjIzVq1cnJSV17dq1adOmN27c+Omnn8p/I3a7du0WLlxYwyRFRUXx8fFr1qzx8vLy9/fXY7ylS5d+9913mu1Ro0b169dPj5MDAAAAMANm29aEEJ999ln79u3nz59/5MiRykdfeOGF2bNnOzg4VNivUqkKCgqysrIOHjy4devW/Px8IcTly5eHDh0aHx/v7e1d92CXL19OSEjQbHfq1OmTTz6p+5wAAAAAzIw5tzXx/y9brVu37uDBg1euXCkrK2vevHlAQMBrr71W5XMgi4qKAgICSktLKx+6ePHiyJEjT5w4UfdUsbGx2lOMHz/eysqq7nMCAAAAMDNm3taEEG5ublFRUVFRUboMbtiwYUZGhkHznDhxIiUlRbPt5OTUt29fzfb9+/cVCsUTn04JAAAAQCbMv62Zmu3bt2u3Bw4cmJKSsnHjxgsXLly/fl2hULRu3TowMPCjjz6yt7eXMCQAAAAAydHWjOrx48d79+7Vvly3bt3atWu1L8vKyi5evHjx4sWDBw9+8cUX+v3CAAAAAAD1i9m2tcDAwEmTJunyXWq6WL9+/eeff378+PE6znPmzJlbt25pX9rZ2b399tuvvPJKw4YNjx49Gh8ff/nyZSHE1atXx44du2fPnsoPQalBDU9A2b17d11im6yHD1sUFj7MyiqUOogeZGdnSx1BjzyzsrKkzgD8Geb1SQTqJT6G9cITvwEL+mK2ba2wsPDevXv6mu3OnTuFhXqoBFeuXNFu+/v7JyQkODo6al6GhYV16tRp+PDhmqdQFhQUxMfHz5w5U/fJMzMz656wfrGxEU5ONp6eTlIH0Q9PT0+pI+iNOf0skBv+9QKS42No+mr+tVMvD1GHhnl+O7ZGQUGBvqbSS1UTQuTl5Wm3u3fvrq1qGi1btixfz5KSkvT4IwAAAACoX8y5rV28eNHUpirf1lq0aFF5QN++fRs3bqzZfvz48YULF/RyXgAAAAD1jjm3tePHj1+9erXu8/z+++9paWl1n0cIoVartdtVPvXR0tLypZde0r7UY+EEAAAAUL+Y7X1rQoiHDx/269dP6hT/o0mTJtrthw8fVjmmXbt22u3y1+IAAAAAyIo5X1szQS4uLtrt3377rcoxzZs31263bNnS4JkAAAAAmCTamlF1795du13dPWnlV0i2bt3a4JkAAAAAmCRzXglpgtq1a+fm5paTkyOEOH/+fJVjcnNzNRuWlpZt2rQxXrh6KiVF9JE6gz7Y3LghzOc7ykKkDgAAAGAOzLmtNWrUaNu2be7u7nWc5/fffx8yZMj9+/f1kuovf/lLXFycEOLmzZsnT5709/evMED7tcKvvfZarb4dW4ZCRMrMlFCRInUOfajiCaH11iwxS4hafFUgAAAAqmTOKyH79OlT96omhGjVqlVwcHDd59F44403XF1dNdsrV66scPTRo0dJSUlCCBsbm4kTJ+rrpOYqRYREzyoTZebwJ+vyZckz6OvPLKoaAACAPphzW/P09NTXVF5eXvqaqkGDBgsWLLC2thZC7N+/f8OGDeWPLlmyJDc3V6FQTJ48uVmzZvo6KQAAAIB6x2xXQjo5OZV/XH4dNWnSxMnJSV+z+fv7x8TETJ48ubS0dPbs2Xl5eYMGDSosLFy3bt33339vbW09f/78F154QV+nAwAAAFAfKcrKyqTOIFPnz5+fPn36L7/8ot1jZWXl4+Pz8ccfBwQE1HY2b2/vzMxMvQasB0JDRUiImGkWy+6ysrL0eDVYWgqF4D9XUE+Z0ycRqKf4GJoBef5eaiBme23N9LVv337Tpk1SpwAAAABgosz5vjUAAAAAqL9oawAAAABgimhrAAAAAGCKaGsAAAAAYIpoawAAAABgimhrAAAAAGCKaGsAAAAAYIpoawAAAABgimhrAAAAAGCKaGsAAAAAYIrMtq0lJCQEBAT079//3LlzUmcBAAAAgFozz7a2a9euL7744u7du7///vvixYuljgMAAAAAtWaebe3rr79WKpWabQsL8/wZAQAAAJg382wy58+fnzZtmpOTk4eHxwcffFB5gK+vb60mvHz5cnJysp7SAQAAAMCTWUodwFAGDRo0cuTI6o6WlJTUaraNGzeuWrUqMzOzzrkAAAAAQCfmeW3Nw8PjwIEDepzw/v37epwNAAAAAJ7IPNvas88+GxMTc+HCBX1NmJ2dra+pAAAAAEAX5tnWRowYce/eveHDhy9atOjq1at1nO3KlSunT5/WSzAAAAAA0JF53rfWvHnzyMjIOXPmLF26dOnSpQ4ODk5OThXGeHt7S5INAPAnKBQKqSPoTVlZmdQRAAD1g3m2NSHEqFGjCgsLExISysrK7t69e/fuXakTAQD+PCM0nOjo6MLCwvj4eEOfCAAAHZnnSkiNDz74YO3atX379q18YQ0AAAAATJzZXlvTCAgICAgIqLzf29tb98fxZ2dnh4eHFxQU6DUaAJiDlBQRGip1CL2ZKYT4/HOpU+hJcrIICZE6BACgbsz52pq+tGzZsnfv3lKnAAATFRIiysrM5M/ly1mSZ9DLH3oaAJgHM7+2pi8uLi5SR0DVUlJEnz5Sh9CHGzdssrKkDgEAAABTItO2tmfPnlqNHzt27CuvvGKgMPjTQkJESoqIjpY6hz6kpJwLCWkhdQr94H/UBwAA0AsFzxE2D7W6Ew8mKCgoKCYmJoSig/omJUWI0NAQkSJ1EPyPFBEikpP5TxTUR1lZWZ6enlKnQJ3we6keyfTaWgWXLl3atGnT0aNHr1y5olKpmjZt2rVr1yFDhgQHB0sdDQBMXXRIckiy1CH0xGx+TYwOFTOlzgAAqDu5t7WSkpKYmJikpKTHjx9rd+bk5OTk5Pzwww+BgYHx8fFNmjSRMCEAAAAAeZL1MyFzc3MjIiK+/fbb8lWtvOPHj4eHh1+4cMHIwQAAAABAvm2tpKRk4sSJGRkZNQ/LycmZMGHCgwcPjJMKAOojhcJM/nh5eUqeQS9/UlKk/jcBANAH+a6EjI2NTU9Pd3BweP3113v37u3u7u7k5GRtba1Wqx88eHDt2rXMzMxDhw7t27fv6tWrc+bMmTt3rtSRAcDkhISYz1NAo6OjCwsL4+PjpQ4CAMAfZNrWsrKykpKSevTosXjxYicnp/KHlEqltbW1s7Ozj4/P0KFDb9++PWvWrK1bt44dO7ZNmzZSBQYAAAAgNzJ9gv/ChQu3bNmya9cue3v7Jw5Wq9UjR4709/f/+OOPjZDtz+FJqYaTkpISGhoqdQr9mDVr1syZPCgO9ZJCoZA6gt7I8795AR2ZzaNZ5YzfS/VIptfWjhw5Mn78eF2qmhBCqVSOHTs2MTHR0KlgmkJCQozwqxX/5QTUzDgNh08iAMCkyPQpI1lZWc8++6zu47t06ZKVlWWwOAAAAABQkUzbWlFRkaurq+7jnZyceCwkAAAAAGOSaVtzdna+deuW7uMLCwvt7OwMlwcAAAAAKpBpW2vZsmVqaqru40+dOuXl5WW4PAAAAABQgUzbWnBwcGJi4v3793UZrFKpli1bFhQUZOhUAAAAAKAl07Y2cODAvLy8cePGFRQU1DwyNzf3zTffPHfu3ODBg42TDQAAAACEbJ/g7+HhMWzYsPXr1w8YMCAiIiI4OLhVq1ZOTk7W1talpaVFRUU3bty4dOlScnLyjz/+WFxcHB4ezkpIAAAAAMYk07YmhIiKijp58uSFCxeWL1++fPnyGka2atVq+vTpRgsGAAAAAEK2KyGFEHZ2dsuXL2/btm3Nw1xdXRMSEho2bGicVAAAAACgId+2JoRwc3PbuHHj0KFDLSyq/nvw9/ffvHlzu3btjBwMAAAAAOS7ElLDzs5u7ty5Y8aM2bZt2+HDh7Ozs4uKilxcXLp06TJ48ODQ0FCpAwIAAACQKbm3NY22bdtGRkZGRkZKHQQAAAAA/iDrlZAAAAAAYLJoawAAAABgimhrAAAAAGCKaGsAAAAAYIpoawAAAABgimhrAAAAAGCKaGsAAAAAYIpoawAAAABgimhrAAAAAGCKLKUOIHcnT55UqVRVHmrXrp2Li4uR8wAAAAAwEbQ1KZ05c+Yvf/lLdUcXLVoUFhZmzDwAAAAATAcrIaW0dOnS6g499dRT/fr1M2YYAAAAACaFtiaZ9PT01NTU6o6OHj1aqVQaMw8AAAAAk8JKSMloLqyNGDGib9++aElqJAAAIABJREFUlY8GBAQYPREAAAAAE0Jbk8bZs2f3799vb2//0Ucf2dvbSx0HAAAAgMlhJaQ0EhIShBBvvPEGVQ0AAABAlWTa1r755psajvbq1cvb27tDhw49e/acOHFicnKyfs+emZm5d+9eIcRPP/20devW/Px8/c4PAAAAwAzIdCXk3Llz33zzzeqOHj58WAjx+PHjmzdv/vrrr+vXr9+xY8f8+fP19diPpUuXlpWVCSGOHTt27NgxhULRqVOn8PDwiIgIhUKhl1MAAAAAqO9kem1NFxYWFs2bN+/Xr9/y5ctbtWq1YsUKvUx74cKFPXv2lN9TVlaWnp4+a9asv/71rzdv3tTLWQAAAADUd7Q1nbz55pubN2/Wy1T79+93cHCo8tChQ4defvnl/fv36+VEAAAAAOo12ppOlErljRs39DLV+PHj09LSfv311z179kRHR/fv37/8AsvCwsIPP/zwt99+08u5AAAAANRfMr1vrba2b9/u7Oysxwmtra09PDw8PDwiIiIuXrwYGxt74MABzaGSkpLJkydv3LixtrfJeXt7V3do9+7ddYoLw8vOzpY6AgA+iYD0+BjWC2FhYVJHkAvaWrUeP35cUFBw8eLFHTt2bN68ecCAAQY6UZs2bVasWLFq1ap58+Zp9qSnp69fv37kyJG1miczM9MA6WA8np6eUkcAwCcRkB4fQ9NX86+dNVxCQG2ZeVv7+eefhw8fXuWhWv0zsrCwqOEZknoxZsyYx48fx8XFaV4eP368tm0NAAAAgDkx87bm7e29fv363Nzc9PT0ffv2Xb58+U9MolAopk6d2rVrV73Hq+Cvf/3rnj17zpw5I4Q4e/asoU8HAAAAwJSZ+VNGbG1tu3Xr9sILL0RFRe3atWvVqlVt27bV8b0WFhaNGzfu37//unXrRo0aZdCcWh9//LFmIzs7+/79+8Y5KQAAAAATZObX1iro1avXli1b3nrrrdOnT5vmXV4BAQE2NjYPHz60srKytraWOg4AAAAAyZj5tbXKbGxsYmJipE5RLQsLi1atWgkhnn76adoaAAAAIGeya2tCCC8vLy8vL6lTVKugoEAI0aVLF6mDAAAAAJCSHNuaECIqKkrqCFW7cePGzZs3hRD+/v5SZwEAAAAgJXndt6b13HPPlX956dKlTZs2HT169MqVKyqVqmnTpl27dh0yZEhwcLCRg82dO1cI0bNnz/79+xv51AAAAABMikzbmlZJSUlMTExSUtLjx4+1O3NycnJycn744YfAwMD4+PgmTZro8XRLly7973//GxgYOGrUKCsrq/JHv/nmm927dzs6Os6bN0+hUOjrpAAAAADqI1m3tdzc3AkTJmRkZFQ34Pjx4+Hh4cuXL2/Xrp1ezrhnz55ly5YJIVJTUzdu3Pjhhx8+99xzFhYW586dS0hI2L9/v62t7fz585s1a6aX0wEAAACov+Tb1kpKSiZOnFhDVdPIycmZMGHC999/b2dnV/eTOjk5abezsrL+9re/WVhYKBQKtVothOjcuXNcXJyHh0fdTwQAAACgvpNvW4uNjU1PT3dwcHj99dd79+7t7u7u5ORkbW2tVqsfPHhw7dq1zMzMQ4cO7du37+rVq3PmzNHcUVZHvXv3Hjdu3OrVq1UqlWaPZgVm+/btw8PDR44cqVQq634WAAAAAGZAUVZWJnUGCWRlZb344ovdu3dfvHhx+etdld2+fXvWrFl79uz54Ycf2rRpY7SEteXt7W2a3/cNHWVlZXl6ekqdApA7PomA5PgYmgF+L9UjmT7Bf+vWrc7OzgkJCTVXNSFE48aN4+Pju3btum3bNuNkAwAAAAAh27Z25MiR8ePH29vb6zJYqVSOHTv22LFjhk4FAAAAAFoybWtZWVnPPvus7uO7dOmSlZVlsDgAAAAAUJFM21pRUZGrq6vu452cnB48eGC4PAAAAABQgUzbmrOz861bt3QfX1hYqJcn+AMAAACAjmTa1lq2bJmamqr7+FOnTnl5eRkuDwAAAABUINO2FhwcnJiYeP/+fV0Gq1SqZcuWBQUFGToVAAAAAGjJtK0NHDgwLy9v3LhxBQUFNY/Mzc198803z507N3jwYONkAwAAAAAhhKXUAaTh4eExbNiw9evXDxgwICIiIjg4uFWrVk5OTtbW1qWlpUVFRTdu3Lh06VJycvKPP/5YXFwcHh7OSkgAAAAAxiTTtiaEiIqKOnny5IULF5YvX758+fIaRrZq1Wr69OlGCwYAAAAAQrYrIYUQdnZ2y5cvb9u2bc3DXF1dExISGjZsaJxUAAAAAKAh37YmhHBzc9u4cePQoUMtLKr+e/D399+8eXO7du2MHAwAAAAA5LsSUsPOzm7u3LljxozZtm3b4cOHs7Ozi4qKXFxcunTpMnjw4NDQUKkDAgAAAJApubc1jbZt20ZGRkZGRkodBAAAAAD+IOuVkAAAAABgsmhrAAAAAGCKWAkphBCXLl3atGnT0aNHr1y5olKpmjZt2rVr1yFDhgQHB0sdDQAAAIBMyb2tlZSUxMTEJCUlPX78WLszJycnJyfnhx9+CAwMjI+Pb9KkiYQJAQAAAMiTrFdC5ubmRkREfPvtt+WrWnnHjx8PDw+/cOGCkYMBAAAAgHzbWklJycSJEzMyMmoelpOTM2HChAcPHhgnFQAAAABoyHclZGxsbHp6uoODw+uvv967d293d3cnJydra2u1Wv3gwYNr165lZmYeOnRo3759V69enTNnzty5c6WODAAAAEBGZNrWsrKykpKSevTosXjxYicnp/KHlEqltbW1s7Ozj4/P0KFDb9++PWvWrK1bt44dO7ZNmzZSBQYAAAAgNzJdCbl161ZnZ+eEhIQKVa2yxo0bx8fHd+3addu2bcbJBgAAAABCtm3tyJEj48ePt7e312WwUqkcO3bssWPHDJ0KAAAAALRk2taysrKeffZZ3cd36dIlKyvLYHEAAAAAoCKZtrWioiJXV1fdxzs5OfFYSAAAAADGJNO25uzsfOvWLd3HFxYW2tnZGS4PAAAAAFQg07bWsmXL1NRU3cefOnXKy8vLcHkAAAAAoAKZtrXg4ODExMT79+/rMlilUi1btiwoKMjQqQAAAABAS6ZtbeDAgXl5eePGjSsoKKh5ZG5u7ptvvnnu3LnBgwcbJxsAAAAACNl+O7aHh8ewYcPWr18/YMCAiIiI4ODgVq1aOTk5WVtbl5aWFhUV3bhx49KlS8nJyT/++GNxcXF4eDgrIQEAAAAYk0zbmhAiKirq5MmTFy5cWL58+fLly2sY2apVq+nTpxstGAAAAAAI2a6EFELY2dktX768bdu2NQ9zdXVNSEho2LChcVIBAAAAgIZ825oQws3NbePGjUOHDrWwqPrvwd/ff/Pmze3atTNyMAAAAACQ70pIDTs7u7lz544ZM2bbtm2HDx/Ozs4uKipycXHp0qXL4MGDQ0NDpQ4IAAAAQKbk3tY02rZtGxkZGRkZKXUQAAAAAPiDrFdCAgAAAIDJoq3V5NixY35+fi+++OI///nP27dvSx0HAAAAgIzQ1mryzDPPHD16NC4uTq1Wv/baa7/99pvUiQAAAADIBfetPYGdnV2nTp06derk7+8fHR29du1aqRMBAAAAkAWuremqV69eZ86ckToFAAAAALmQRVs7duzY22+/HRAQ4OfnFxERsW/fvj8xyZkzZxo0aKD3bAAAAABQJfNfCblkyZLFixdrX54+fXrixIkfffTR+PHjdXn7/fv309PTDx06tGHDhjZt2hgsJgAAAAD8DzNvazt27Chf1bQWLlzo6uo6aNCgCvsLCgr++9//Xr58OSsr69KlS5cuXbp+/XpZWZnmaHBwsMETAwAAAIAQwrzb2rVr12bMmFHd0Tlz5gQHBzs7O2teZmRkxMXFHTt2TNvNKrC1tR02bJhBggIAAABAJeZ839qqVauKioqqO1pYWLh69WrN9s6dO4cPH3706NHqqpoQYsqUKU2bNtV/SgAAAACoitleW7t3797WrVuFEH5+fm+88Ub37t2bNGlSVlZ269atkydPrlmzJiMjY+PGje+9996ZM2eioqJUKlV1U9nZ2X3yyScRERFGjA8AAABA7sy2rR08eLCoqGjYsGGzZ89WKBTa/S1btmzZsuWgQYOmTZv23XffHTt27LPPPtNUtc6dO/v6+trb22sHN2zYsFWrVr17927UqJEEPwMAAAAAGTPbtnbixAkPD4+///3v5aualoWFxaxZs9LS0mbPnn316lUPD48FCxb4+fkZPycAAAAAVMls71v75Zdfhg0bZmVlVd0AGxub4cOHX716tUWLFt9++y1VDQAAAIBJMdu2lpeX16NHj5rHBAYGCiEmTZrk4uJilFAAAAAAoCuzbWsFBQWenp41j/Hy8hJC9OnTxxiBAAAAAKA2zLatqVQqOzu7msdonh3SuHHjJ8726NGj/Px8/SQDAAAAAB2YbVsTQiiVyjoO0Nq9e3evXr3qnAgAAAAAdGXObU2P7t27J3UEAAAAAPJizm1NrVbra6qsrCx9TVWD5OTkiIiIiIiIU6dOGeF0AAAAAEyZ2X7fmhBi7969AwYMqPL71mrl1q1bu3bt0kukGuTn50+bNu327dtCiJs3bxr6dAAAAABMnDm3tQ8++ECXYd7e3oZOoovp06drqhoAAAAACPNeCVmPrF+/PiUlReoUAAAAAEwIbU16WVlZ8+bNkzoFAAAAANNCW5OYWq2OjIwsLi4ODAyUOgsAAAAAE2LO962Fh4dHR0dbWtb1Z8zPzw8PD79+/bpeUlWwZMmSX3/91d3dfcaMGS+//LIhTgEAAACgPjLna2sjRoyoe1UTQri4uDz//PN1n6ey06dPJyYmKpXKBQsW2NnZGeIUAAAAAOopc25rHh4e+prK09NTX1NpFRUVffLJJ2q1esKECV26dNH7/AAAAADqNbNtawMHDmzYsKG+Zmvfvv3AgQP1NZvGnDlzfv/99y5dukycOFG/MwMAAAAwA2Z739qCBQv0OFu3bt26deumxwn37t27efPmhg0bLliwQKlU6nFmAAAAAObBbK+tmbL8/PxPP/1UCDFjxgx3d3ep4wAAAAAwRbQ1CUybNq2goCAsLOzVV1+VOgsAAAAAE2W2KyFN1rfffpuamtq8efN//OMf+p3Z29u7ukO7d+/W77mgd9nZ2VJHAMAnEZAeH8N6ISwsTOoIckFbM6rLly/Pnz9foVDMmzfP0dFRv5NnZmbqd0IYmSEePQqgtvgkApLjY2j6av61s4ZLCKgtVkIaT2lpaWRkZHFx8ejRo4OCgqSOAwAAAMCkcW3NeL766qv09HQhxJ07d2bNmlXh6J07d7Tb69atO3bsmBCiS5cugwcPNmJGAAAAAKaCtmY8ly9f1mxs2bKl5pFpaWlpaWlCiIKCAtoaAAAAIE+shAQAAAAAU8S1NeN59dVXO3bsWN3R/Pz8FStWaLZfeuklPz8/IUS7du2MFA4AAACAiaGtGU9gYGBgYGB1R3NycrRtbcCAAc8//7yxcgEAAAAwRayEBAAAAABTRFsDAAAAAFNEWwMAAAAAU0RbAwAAAABTRFszFZaWlgqFQrNtZWUlbRgAAAAAkuOZkKaiWbNm586dkzoFAAAAAFMh92trarV6//79U6dOfemllwICAgICArSHzp07FxoaunLlytLSUgkTAgAAAJAnWV9bO3PmzNSpUy9evFjl0fbt20+fPn3p0qUHDx5MTExs0KCBkeMBAAAAkDP5Xls7evToG2+8UV1VE0JYWFj069dv06ZNTZo0iY6ONmY2AAAAAJBpW7t3715kZOSjR49cXV3HjRu3YsWK1NTUX375pfJIS0vLefPmpaenV3kUAAAAAAxEpishk5KSbt++/d57702YMMHS8gl/CZaWluPHj09KSvLz8zNOPAAAAACQ6bW1ffv2TZgw4f33339iVdN45pln0tLSDJ0KAAAAALRk2tauXLkSERGh+3h7e/vc3FzD5QEAAACACmTa1u7cuePo6Kj7+Ly8PKVSabg8AAAAAFCBTNuag4PD2bNndR+fkpLi5uZmuDwAAAAAUIFM21rHjh3/+c9/6vi117dv3/7yyy+7d+9u6FQAAAAAoCXTthYWFnbixIk333zz8uXLNY88c+ZMREREfn7+4MGDjZMNAAAAAIRsn+A/ZMiQxMTEkydPvvjiiyEhIf379/f19W3atKkQ4vHjxw8ePMjOzj5z5syuXbuOHj0qhAgJCeHaGgAAAABjkmlba9CgwaJFi0aOHPnw4cP9+/fv379fe6hjx44VBru5ucXGxho3IAAAAAC5k+lKSCGEr6/vggULbGxsah7WokWLhIQEZ2dn46QCAAAAAA35tjUhRP/+/b/77rtOnTpVNyAkJGTbtm2Vr7YBAAAAgKHJdCWkVuvWrTdv3pycnPyf//zn559/zs3NVSgUbm5u/v7+r776KveqAQAAAJCK3NuaEMLCwuK555577rnnpA4CAAAAAP9H1ishAQAAAMBkybStqdXqBQsWDBo0aO7cuWVlZVLHAQAAAICKZLoSMiEhYcWKFUKIzMzMZ555pm/fvlInAgAAAID/IdNra1u3btVuN2jQQMIkAAAAAFAlmV5bu3nzZlRUVGpqas+ePXv16iV1HAAAAACoSKbX1lq1ahUYGLh27doJEyboMn7lypVPP/20oVMBAAAAgJZM29qwYcPi4+PVarWO4+/fv6/7YAAAAACoO5m2tVGjRjVu3Pitt97Kzs7WZfylS5cMHQkAAAAAypNpW7OwsIiLi+vbt+/w4cPfeeedzZs3nz179s6dO48fP648+Pfffz948KDxQwIAAMiN0xdfSB0BMCEyfcrIq6++qtlo1KhRcnJycnKytHkAAAAghHD6/HMRHy91CsBUyLStZWRkSB0BAAAAAGoi05WQAAAAAGDiZHptTQjh4uKyZMmSTp06WVtb1zwyNzf3tddey83NNU4wAAAAABByvrb24osvdu3a9YlVTQjRvHnzkJAQwycCAAAAgP8j37bm7Oys+2AXFxfDJQEAAACAymTa1rZs2TJs2DDdx48YMWLLli2GywMAACA70dFCoaj4R4gqdkZHS50VkIZM71vz8fGpeUB6evrQoUOFEJaWlk8//fSkSZN69epllGgAAADyMHOmmDmz4k6FQpSVSZEGMEUybWtP5OPjk5mZKYRQqVRpaWmffPLJ/PnzKWwAAAAAjEamKyF1Z2Vl1atXr+Dg4Hi+qBEAAACAEXFt7QlKS0tPnDiRkpLy8OFDqbMAAAAAkBFZtzWVSrVixYpt27ZlZ2er1eqaB3ft2tU4qQAAAABAyLmtqVSqcePGHTlyRJfBjo6OMyvfBQsAAAAABiPfthYTE6NLVbOxsZkwYcKwYcMaN25shFQAAAByVjhpkpPUGQDTIdO2lpWVlZSUZG9vP2HChOeff75FixZKpdLX1zctLc3W1lYzpri4+MKFC+vXr09JSXnttdekDQwAACAHhR9+SFsDtGTa1r777jtHR8ekpCQPDw/tTnt7+9u3bz/11FOal7a2tn5+fn5+frt27fr4449XrlypVColygsAAABAdmT6BP+DBw9GRkaWr2pCCEdHx//+97+VBz///PNt27bdvXu3sdIBAAAAgFzb2tWrV5977rkKOz09PY8fP17l+OHDh2/atMnwuQAAAADgDzJta48ePbKzs6uws127dt9//31xcXHl8S1btjx//rxRogEAAJii6OhoheF5eXkZ4SwpKSlS/3UCOpHpfWtNmza9efOmm5tb+Z1+fn6JiYkrV6587733Koy/evXqnTt3jBgQAADAtMycObNPnz4GPUVqauquXbtiYmIMehYhREhIiKFPAeiFTNuau7v7qVOnioqK4uLiXF1dp06d2qBBg969e9va2i5dutTHx6fCZzgxMdHR0VGisAAAADUJDRXGulYUYvj5Z4aGGvgkxjJrluD7elFHMm1rffv2/frrr62srE6fPi2EcHd3Hzt2rI2NTUhIyM6dO999992//vWvr7766lNPPZWbm7t8+fIdO3b07NlT6tQAAABVSUlJniV1Bj0pLCx0cjKHZ/inpoiUlBDaGupIpm3txRdfjIuLKykp0by8ePGiZmPChAl79uwpLS1dtmzZsmXLyr+lR48exk4JAACgg5AQIWZFS51CP8yhqAkhhOgjRJ9ZwvBXI2HmZNrWXFxcoqKi5syZo3kZFBSk2fD29o6IiFi3bl2F8VZWVkOHDjVqRAAAAN3MTA4xTiswwsM5bty40aJFC0OfhfvWUF/ItK0JIUaNGtWxY8eDBw+2bt164MCB2v1RUVEZGRk///xz+cGTJk1q1qyZ0TMCAACYECOUnKysLE9PT0OfBagv5NvWhBABAQEBAQEVdtra2q5Zs+arr776/vvvc3JymjZt+sYbb4wZM0aShAAAAABkS9ZtrToNGjR499133333XamDAAAAAJAvmX47dm3dunUrPT1d6hQAAAAAZIS2ppNt27bxlBEAAAAAxsRKSJ0UFBTofc78/PwtW7b89ttv165da9GiRYcOHQIDAzt37qz3EwEAAACoj2hrT1BaWpqZmbl9+3b9Trt69epFixYVFRVp9/zwww8KhWLcuHEffvihUqnU7+kAAAAA1DsybWt+fn6PHj2S6uyrVq2aN29e5f1lZWWJiYn5+flz5841fioAAAAAJkWm9605ODhIdeq0tLT58+crlcrevXtPnz7966+/njp1qrOzs3bA1q1bf/31V6niAQAAADARMr225ujoePPmTV1G2tjYNG7cWF/nLSsrmz9/voWFxeeffz5gwADNzqCgoEGDBg0fPvz333/XjDl48KCvr6++TgoAAACgPpJvWxNCTJ48ediwYY0aNao8oKSkJDs7OzU1de3ata+88sr7779vYaGH65AnT55MT0+fO3eutqppNG7ceNasWdrv4M7Ozq77uQAAAADUazJdCeno6Ojk5DRmzJgqq5oQwtraunXr1qNHj96+ffvFixfj4uL0ct6AgIAff/zx1VdfrXwoMDDQ0vKP8uzq6qqX0wEAAACov+Tb1srfKlYDOzu7+Pj406dPnzhxQi+ndnd3r3J/WVmZQqHQbPfp00cv5wIAAABQf8l0JeQHH3zw4MEDHQcrlcoJEyasXr06ICDAcJF++eUXlUolhOjTp4+fn5/hTgQAAACgXpDptTU3N7d27drpPr5r167p6emGyyOE2LNnjxCiWbNmMTExBj0RAAAAgHpBpm2ttmxsbG7dumW4+VevXv311183adJkzZo1TZo0MdyJAAAAANQXtDWd3L59287OzhAz371794svvoiNjRVC3Lt3LyUlRbMeEgAAAIDMyfS+tdo6cOCAh4eHfuf89ddfV6xYkZycXFJSotlTUlISGxubmpq6bNkyGxsb/Z4OAAAAQP1CW6tJSUnJrVu3jhw5EhcXN2zYMP1OnpOTk5eXV/lr3I4ePfrJJ58sWrSothN6e3tXd2j37t21zgfj4kv2AFPAJxGQHB/DeiEsLEzqCHKhKCsrkzqDBPz8/B49eqT7eKVSuWPHjtatW+s9iVqtPnfu3IoVK3bu3Fl+/5YtW3x8fHSfx9vbOzMzU9/pYDxZWVmenp5SpwDkjk8iIDk+hmaA30v1SKb3rTk4ONRq/MSJEw1R1YQQSqWyU6dOn3/++cqVK8un2rx5syFOBwAAAKC+kGlbc3R01GVYo0aNunfvvnDhwvfee8/QkXr37j1t2jTty6ysLEOfEQAAAIApk+l9a5q2NmPGjCFDhhjoYY9/wpAhQ7788ssrV64IIXJzc6WOAwAAAEBK8r221qRJk5EjR5pOVdPo1q2bZqNFixbSJgEAAAAgLfm2NR0XQxqZr6+vZqNdu3bSJgEAAAAgLZmuhPzggw8ePHhQ93kKCgpu3LjRsWPHuk+loU1Vw+P4AQAAAMiBTK+tubm56eXi1ZYtWwYPHlz3ebQOHTokhHBzc3vppZf0OC0AAACAekembU1f8vPza/uW8+fPnzx5sri4uPKhbdu2HT9+XAgxbdo0GxsbPeQDAAAAUG/JdCWkXty6dWv//v21esuaNWvmzJkjhHB0dHzjjTdGjhzp7OwshCgrK1uzZs2CBQuEEG+++Wb//v0NERgAAABAPSLTtibVXWE///yzZuPOnTtLliz56quvunXrZmNjc/bs2Rs3bri4uMTExDz77LOSZAMAAABgUmS6EjIxMbF3794KhcLI53377bebN2+uffnw4cMjR46kpqba2NgMHTp0x44dVDUAAAAAGjK9thYSEhISEvLbb7+NGTMmNzfXzs6u8gP9y8rKrl+/rt/zduzY8cCBA/qdEwAAAIBZkmlbE0IUFxfPnTu3UaNGkydP7tevX4MGDSqPSUtLmzt3rqur6+LFiy0tK/5dZWdnv/baa7dv3zZKXgAAAADyItOVkEKITz/9tHHjxlu2bHnppZeqrGpCiB49eqxfv76oqGjevHmVj7Zs2bJPnz4GjgkAAABApmTa1g4fPpyXlzd//nxbW9uaR9ra2i5btuzAgQMXLlyofLT8TWgAAAAAoEcybWtJSUkTJ060sNDpx7e1tR03btzGjRsrHxo5cuSWLVv0nQ4AAAAA5NrW0tPTu3Tpovv44ODgQ4cOVd7ftGlTHx8f/eUCAAAAgD/ItK3l5eWpVCrdxzdu3Fjvz4cEAAAAgBrItK01bNjw7Nmzuo+/du2alZWV4fIAAAAAQAUybWutW7devXq17uM3b97MA0UAAAAAGJNM21pQUFBKSkpCQoIug3ft2rVy5cqgoCBDpwIAAAAALZm2tSFDhlhYWHzxxReRkZF5eXnVDSsoKPjss88+/PBDtVr90ksvGTMhAAAAAJmzlDqANDw8PIYPH75+/frt27fv2bOnf//+/fr18/Hxadas2ePHj/Py8n755ZfDhw//5z//efTokRAemdGpAAAgAElEQVSib9++tXqGJAAAAADUkUzbmhBi8uTJaWlpFy9efPTo0Y4dO3bs2FHdyKZNm86cOdOY2QAAAABApishhRC2trZffvmlp6dnzcNcXFwSExNbtGhhlFAAAAAA8Af5tjUhhIeHx+bNm5977rnqBoSGhn733XedOnUyZioAAAAAEHJeCalhb2+fkJDw008/bdmy5cSJE9evX7e0tHR1dQ0KCho0aFDnzp2lDggAAABApuTe1jS6devWrVs3qVMAAAAAwP+R9UpIAAAAADBZtDUAAAAAMEWshPzDzZs3N23adODAgUuXLt2/f9/Z2blDhw5hYWGDBg2ysbGROh0AAAAA2THPthYREVFcXFzlIQsLi0WLFrm7u2v3qNXqL7/8MjExsaSkRLszPz//0KFDhw4dWrJkSVxcXGBgoMFDAwAAAEA55tnWwsLC4uLi1Gp1+Z2enp7du3d/6qmnHB0dtTtVKtX777+fnJxc3VS5ublvvfXW1KlTR40aZcDEAAAAAPC/zLOtjR492s/Pb9KkSXl5eUql8uWXXx49enTHjh0rj/zHP/5Rvqoplcrw8PBBgwa1b99eqVReunRp+/btGzZsiImJad26de/evY34QwAAAACQNfNsa0IILy8vS0tLDw+PhQsX+vj4VDnm1KlTGzZs0L50cXFZvnx5+e/C9vX19fX1HTFixMSJE6Oiovbu3WtnZ2fw6AAAAABgxs+EnDFjhpWV1caNG6urakKIFStWaLctLS0rVDUtT8//196dB0RV9XEDPwwIgYrJojk8SpqCRmDq41KYGmpkhvqImrgkiz0qpuSCLO4mpmCaoKCoFRqCCfqYsamPWoClQiI5CYjyILKPgUOswzDvH/d9z3ubGYYBBuY68/38dfdzQA/3/u4953dePXHihFQqjYuL65K6AgAAAAAAyNHOaC0nJ+f69euHDx9++eWXWzumrq4uLS2Nrrq6uioM1Rh8Pt/Ly+vKlStqrigAAAAAAEArtDNau3Tp0owZM2xsbJQcc/fuXbFYTFc//PBD5dd877338vLy1FM/AAAAAACAtmhntHb79m1nZ2flx/z222902dDQcOTIkcqP5/P5tbW1aqgcAAAAAACACrQzWispKXFwcFB+DDtas7e3NzIyUn58bW2tkn6VAAAAAAAA6qWd0Vp1dbWZmZmSAyQSSVZWFl0dO3Zsm9cUCoV9+/ZVQ+UAAAAAAABUoJ3RmqGhYV1dnZIDcnJy2AeoEq3du3dvwIABaqgcAAAAAACACrQzWhs8eLBAIFBygMyM2KNGjWrzmqmpqW32rgQAAAAAAFAX7YzWJk+e/N1337W2VywWx8bG0tVx48a1Oed1WVnZ5cuXnZyc1FZFAAAAAAAApbQzWlu4cGF6enpMTIz8LqlU6u/vX1lZSbe4ubm1ecGgoKDhw4crmZANAAAAAABAvbQzWuvfv39AQMCOHTv27t0rEono9srKys8+++zHH3+kW95+++02c/2fOHHi8uXL69at66rqAgAAAAAAyDHQdAW6ipubm0Ag+Oabb2JjY0eNGmVpaVlWVvbbb7+xZ8QeNmzYgQMHlFykrq7u4MGDp06dGjx48D//+c+urzUAAAAAAMD/pbXRGiFk9+7dNjY2wcHBN2/elN87Y8aMXbt2mZqaymwXi8VVVVX/+9//UlNTz58/LxQKCSEFBQWurq4HDx60tbXtjqoDAAAAAIDO0+ZojRDy8ccfT5s2LTo6OjU1tbCwUCqV9u/ff+zYsfPnz1eYB7Kurm7s2LHNzc3yux49erRkyZI7d+50fa0BAAAAAAC0PVojhPD5fF9fX19fX1UONjExUZ76HwAAAAAAoHtoZ5YRAAAAAACAFx2iNQAAAAAAAC5CtAYAAAAAAMBFiNYAAAAAAAC4CNEaAAAAAAAAFyFaAwAAAAAA4CJEawAAAAAAAFyEaA0AAAAAAICLEK0BAAAAAABwEaI1AAAAAAAALkK0BgAAAAAAwEWI1gAAAAAAALgI0RoAAAAAAAAXIVoDAAAAAADgIkRrAAAAAAAAXIRoDQAAAAAAgIsQrQEAAAAAAHCRgaYroLsKCgpu3LiRl5f35MmTfv362djYODg4ODo6arpeAAAAAADACYjWNEAsFh89evTYsWNisZhuTExMJIRMmjRp586dfD5fc7UDAAAAAABOQE9IDdi4cePhw4fZoRr1888/f/jhhwUFBd1fKwAAAAAA4BREa93t4sWLycnJhBBjY2NnZ2dPT8/33nuvT58+9IDa2toNGzYojOVAizk7O2u6CgCAlgigeWiGAGzoCdmtJBLJnj17CCEuLi7+/v4WFhbM9j///DMgIODGjRvMqkAgiIuLc3Nz01Q9AQAAAABA4/BtrVtlZ2dXV1fPnj07JCSEhmqEEDMzs4iICAcHB7rl7t27mqggAAAAAABwBaK1bpWenm5qarp9+3Y9PT2ZXTweb9euXXRVIBB0b9UAAAAAAIBbEK11K3Nzcz8/v549eyrcO2LECPrBDePWAAAAAAB0HMatdas2h6INHDhQKBQSQpDEHwAAAABAx+HbGreUlJQwC2+++aZmawIAAAAAAJqFaI1DhEJheXk5szxz5kzNVgYAAAAAADQL0RqHZGVlMQtOTk7Dhg3TbGUAAAAAAECzEK1xhVQqjYyMJIQYGhoGBARoujoAAAAAAKBhyDLCFUlJSffu3SOEuLu7Dxo0qANXsLW1VXeloFvhXxCAC9ASATQOzRCA0pNKpZquAxCxWDxjxoyioiI7O7uYmBgjIyNN1wgAAAAAADQMPSE5ITw8vKioyMLCIjw8HKEaAAAAAAAQRGtc8PPPP0dERPTo0SMsLOyVV17RdHUAAAAAAIATEK1p2OPHjzds2EAI2b179+jRozVdHQAAAAAA4ApEa5pUUVHh5eUlEon8/PzmzJmj6eoAAAAAAACHIFrTGJFItHz58pKSkhUrVnh4eGi6OgAAAAAAwC2I1jRDJBK5u7vn5ua6ubmtX79e4TEPHz6sra3t5ooBAAAAAABHIFrTgJqaGk9PT4FAMGvWrG3btik8Jjk52cXFJTMzs5vrBgAAAAAAHIH51rpbdXW1l5fX/fv3ra2t9+/fr6+vT3dJJJKmpiahUJiSkpKSktK7d+/09HQDA8xgDgAAAACgixAJdKuKigoPD4/8/HxCSGFh4fz585UcPHPmTIRqAAAAAAA6C8FA9ykuLl62bFlRUZGKx8+ePbtL6wMAAAAAAFyGcWvd55dfflE9VLO2th45cmSX1gcAAAAAALgM49YAAAAAAAC4CN/WAAAAAAAAuAjRGgAAAAAAABchWgMAAAAAAOAiRGsAAAAAAABchGgNAAAAAACAixCtAQAA6DqpVHrz5s1jx45VVlZqui4AAPD/YXZseLHl5+fLP1sMGDDg1VdfVXJWTU3N/fv3Fe4yNze3sbFps9yMjIwdO3ZERkby+XyVK6vAX3/9lZKS8vjx46KiouLiYkKIlZWVlZXVxIkT33rrLR6PRwiJjY1NTU09cuSI6petrKzMz89Xfszo0aONjIxUv2ZBQcGNGzfy8vKePHnSr18/GxsbBwcHR0dH1a8AHIQWpBZFRUVPnz6V2aivrz9u3Lj2XkogEIhEIpmNZmZmtra2Ha+fUs+fPz9//nxMTExhYSEhZOTIkZaWll1UFqgRGq8GS3z48GFaWlp2dvazZ8+ampoIIZaWlkOGDJk6daq9vb2enp5aKgzAQLQGL7bjx48nJiYyfyspU1PTc+fOKblj5ebmBgQElJaWymw3MzObPHny3r172yw3Kirq4cOHMTExGzZs6FDFyaNHj06fPn3x4sW6ujq6kcfjMffRr7/+esCAAbNnz7a3tw8LC+vRo0e7Lp6WlhYWFlZWViaRSOT3mpiYmJubnzx50traWpWricXio0ePHjt2TCwW042JiYmEkEmTJu3cubOT92zQILQgtYiPj4+OjpaPsmJjY0eNGqX6daqqqhYtWtTQ0MDe2Ldv30mTJgUHB6uhonL8/f0TExMbGxu74uLQpdB4NVJiWlpaaGjovXv3FO49evSotbW1n5/f1KlTO19tAAZmx4YXnlQqTU1NDQ8Pv3v3Lt04ZMiQc+fO9erVS8mJDx48OH36dHx8PCGEz+dHREQMHz5clRJLSkqmTZsmkUjMzMx++uknQ0PD9tb5zJkzQUFBzc3NhJA+ffq4ubk5OzsPGjTI2Ni4uLj40aNH0dHRqamp9HgTExP2T6ei2trarVu3JiQk0C3m5uYHDx4cN25cu978+fj4JCcnt7a3Z8+e8fHxgwcPbm/1gCPQgtQlKytr9erVQqGQbpk6dWp4eLjqVzh8+HBYWBhd5fP5R44cef3119VZy78LCgoyNTW9dOkS82GNEHLq1Knx48d3XYmgRmi83VlifX39li1bfvzxR2bV2dnZycnJ3t7eysoqPz9fIBCkpKSkp6cze52cnL788ksTE5PO1ByAgWgNtIREItmwYUNSUhLdMmXKlIiICKZvQ2saGxvHjx9fX18fEBDg7u6uYln79+8/fvw4sxwcHDx79mzV69nY2Lhjx47z588zqzNnzgwKCjI2NpY/8tatW/7+/iUlJcyqQCAwMGj3x/Dy8vJJkybR1WPHjk2ZMqVdV7h48eKmTZsIIcbGxpMmTbKysnr69OmtW7eeP39Oj7Gzszt79mxXf76ALoUWpBbJyck+Pj50VU9PLyEh4bXXXlPl3IaGhnfffffPP/+kW/z9/T08PNRfSznx8fGBgYHMclRU1IQJE7qhUFAXNN5uKPHZs2fLli17+PAhIcTAwGDLli1ubm4yF5FKpUePHg0NDW1paSGEjBgx4vjx4+hXDJ2HLCOgJfT19UNCQthd8m7cuHHw4EHlZxkZGTF/SQcOHKhiQQ0NDefOnaOr0dHR7arnzp076Z1j0aJFX375pcI7ByFk/Pjxx48f7927N7Mq38lKFf3792cPTlNlTAKbRCLZs2cPIcTFxeXq1auhoaF+fn5hYWHJycnsqE8gEMTFxXWgesAdaEFqMWLECPaqVCo9efKkiudeuHCBHaqR9vxWO+kf//hH9xQEXQGNt6tLrK+vX7lyJROqEUJOnDghH6oRQvT09FatWkXHvD148GDFihXoZgydh2gNtEePHj1k+n5ERkbSTgutYf469+zZU8VSfvzxx+rqarp67949gUCg4rnJyclMzxNCyNChQ7ds2aK8R+LQoUO/+uor5hj2t6x2obcfQkh7e2VkZ2dXV1fPnj07JCTEwsKCbjczM4uIiHBwcKBbuqGbGXQ1tKDOk+9+9sMPP5SXl7d5YktLyzfffCOzUfXfaie1K+EQcBAab5eWuHnz5uzsbGbZycnprbfeUnIdJycnV1dXZlkgEOzYsaMDlQdgQ7QGWm7z5s3KbyfMn2blPUbYTp8+LbNFxfeLFRUVW7dupasBAQH6+vptnjVx4sSJEyeSTjxrsn+09nZWTE9PNzU13b59u/xNjsfj7dq1i66qfs+GFwtaULswvwdDQ8Nhw4YxW8RicVRUVJsnXr16tbCwUF9fnz18qNsyy6nym4QXji43XjWWmJmZyR7+vXr16javs27dOlrc+fPns7KyVK85gDxEa6CFvLy86FNOQ0ODzLj/zsjIyMjJyeHxeNu2baMbExISVLmXnD17lnaueP3115lbgiqWLFlCuqsflwxzc3M/P7/W3ryOGDGCfnBjp4uEFx1aUCfp6ektX76crsbGxtbU1Cg/hekw+cEHH2gkw6rqz+vAcWi8ai8xJCSELk+ZMuWNN95o8yKWlpZvv/02XQ0NDVWxdACF8AcatND06dM//fRTulpaWrp27Vq1hBOnTp0ihEyePHnRokU0/X1DQ0Obo7akUintPU8IYWf+aNOkSZMGDRqkkXDIzc1t3rx5Sg6gAx6QxF+boAXJaGpqunPnTlRUlK+v76effnro0KGUlBSZzOkyPvzww1deeYVZrq2tjYmJUXJwZmYm8/bdy8urXRXLz88/evRoYGDgpk2bDh06dP36dVUezcvKyhITE3fv3r1y5co9e/YkJCQwSREYmCrqhYbGq94Si4qK2P38586dq+J1nJ2d6XJ6err8lAkAqsN8a6CdVq9enZeXl5KSwqxmZmbu2rXr888/78w1S0tLr169SghZunSpnp7e4sWLmQwchJCYmBgPDw8l76d/+eUXmmyKEKL6ez5CCI/HS0hI4GbGRfpDvfnmm5qtCagXWhCVn5+/fv363NxcuuXKlSuEkKFDh+7bt6+1F+0GBgbLli3bt28fsxoVFeXu7t5aunPmw5qjo6NMkhIlSkpKNm/efPPmTfldCxcu3Lp1q8Ices3NzVu2bLlw4QIhhMfj6enpMVMydtsAOegGaLxqLPHGjRvsvarn45GZeCM9PV35q08AJfBtDbSTnp7evn372CNAvv/++/YmsJIRExMjkUhee+01R0dHQsi//vUvml2qqKiIPVuLvDt37rBX2xvbGBoacvCFt1AopOkTZs6cqdnKgHqhBTF++OEHV1fX3NzcRYsWXbx48dy5c//+97+ZB9P8/PwFCxYoGZHy0Ucf0Rw/QqGQiZHkFRQUXLt2jbTnw9rdu3fnzZt38+bNfv36ffHFFzdv3rx8+bKPjw9TsdjY2I8//lj+I5tIJPL09Lxw4QKPx/Px8bl9+3ZGRsb+/fuNjY1ra2vpYZjX50WHxqvGEjMyMti7VO9FMmzYMPZIOZnrALQLojXQWsbGxuHh4WZmZnRLUFDQ7du3O3a1xsbG77//nhCydOlSZoupqamLiws9QPm9kN0Lonfv3tz8UNZe9DnVycmJ5lQArYEWVFJSsnXr1oaGhm3btm3fvn348OEODg4bNmzw9fVlDpBIJFu3bmU+T8nr2bPnwoUL6erJkyfZHQ6pr7/+WiqVjhgxgnkObpNIJFqzZs2zZ8+MjY3PnDkzd+5cc3Nza2trb29vmrQ9MzNzyZIlzHTAjJaWFg8Pj1u3bhFCtm/f7u3t3bt3bxMTExcXl8OHD3fDTHTQnXS88aqxRPZbD2Nj4759+6p4oqGhIfvgysrKDtcBANEaaDMrK6vQ0FD6ICKRSNauXVtcXNyBSyUkJFRVVZmams6ZM4duZIYjM1JTU4uKilo7nX3zUP3PPZdJpdLIyEhCiKGhYUBAgKarA11Cx1tQcHBwQ0PDmDFjFi9ezN7u6ek5cuRIZjkvLy8xMbG1Kyxbtow+KRYWFjJdKNmEQuHFixdJez6sBQUFMU9+ixcvlpkp6/333588eTKzXFBQcObMGbrr0qVL9+/fJ4QMGzZswYIF7LMmTpxIzwKtocuNV40lsqO1AQMGtOtc9pwKz54960w1QMchWgMtN3bs2C1bttDVqqqqVatW1dfXt/c63333HSFk3rx57Lk1bW1tx4wZwyy3tLQoSSTAnnDJ1NS0vaVzUFJS0r179wgh7u7ugwYN0nR1oKvobAsSCARJSUmEkOnTp8vvpdEaISQnJ6e1i1haWs6aNYuunjhxQuaA6OjoxsZGPp//wQcfqFKrioqKS5cuMcvTpk2TP2DlypV0+ciRI3/99RchpKmp6auvvmI2rlmzRn6IEaI1raSzjVeNJTY0NNDl1mbWbs1LL71El5UnJQJQDtEaaD83Nzc3Nze6mpub6+fn166xGb/99ptAIODxeDKv2Mnf3y/GxcWx/7KzsW8YjY2NqhfNTWKx+MCBA4QQOzs7dv4x0Eq62YLoZLh79+4dJYfJj8d49OiRkuuwM6pnZ2eze6PV19czXcg8PDxUnPHshx9+oB0v7e3t5Q8YPXr0qFGjmOXq6momnd2lS5do0gWFZ9nZ2alSOrxwdLPxqrHEPn360OWysrJ2ncueSfzll1/uTDVAx6GrOuiELVu2PHr0iD4npaSkhIeHqzLHJYOZEtTBwcHQ0LCiooK968033zQyMmLuB8+fP09ISHB1dZW/grW1NfMlihDy559/dvgHIYQ8efJESZJue3v7bhgVEB4eXlRUZGFhER4ebmRk1NXFgcbpYAsqLCxktkybNo3mK1doyJAhSva+9tpr7777LpNHhBASGRk5btw4ZjkuLu758+empqaqJ4v75ZdfmIVevXq1NtjMwcGB5hzPz89/5513mD6QhBADAwM6rwAbO4sDBxMaQWfoYONVY4nsjpTPnj1raGhgfzFTQiKRsMeqsccQArQXojXQCQYGBqGhofPmzXv69CmzJSwszNbWVmFXIhnl5eVMKuSsrKx33nlH+cHR0dEKb1eDBw+my1VVVRKJRMVX6fK++OIL+uQnLz4+XpW5Ozvj559/joiI6NGjR1hYmMInP9A+OtiCaLQ2ZcqU+fPnd6wsxvLly2mJqampubm5tra2Eonk22+/JYQsWrTIxMRExUvR3z87g4gMKysrusx898vPz2dW+/Xrh4mwdY0ONl41liiTsr+0tJR9cSUqKyvZ+YdeffXVjlUAgCBaA93Rt2/fiIiIjz76qK6ujhAilUp9fX2ZPFfKxcbGSiQSCwuL1rIAt7S0XL9+nelbIhAIsrKy5I9kv5tvaWnJzMyk79dfLI8fP96wYQMhZPfu3aNHj9Z0daD76FoLol0Hnzx50slLjRkzZtSoUfR71/Hjx/fv33/58uWnT58aGhrSPHuqoB8WGhoaRCKRwjE57CTjzHePx48fM6vPnz/v2I8ALzRda7xqLHHChAns6b+Li4tVjNZkpsNWMeMrgEKI1kCH2NjYBAcHr1mzhrm11NXVrVq1SnkP/qamprNnzxJCPv30U3bvfxleXl5paWnMcnR0tPztatSoUfr6+vRN27Vr1zp88zA2NlbS+VAt/RJzcnL4fL78g2BFRYWXl5dIJPL392cnBwMdoVMtyMLCgln4448/OlYQm5eXFx3hmZiYuG7dOibjyJw5c2hBqujXrx+TOIQQUl5erjBaY1+QyWJHMxzU1ta2FuOBdtOpxqvGEt966y0ej0fn3vjjjz9UnGubfpwnhPTq1YtmZAHoAPSIAN0yffr0NWvW0NWioiLaOUShxMTEZ8+eyWQulscebJ2cnCzfUZ7P58+dO5eupqSktCtD1O+//37s2DFm+cCBA9mt6/y8ZyUlJXPnzqVdpyiRSLR8+fKSkpIVK1Z4eHh0shR4QelOC6I9l9LS0uhnMXnnzp3z9/dvswJTp06lF5RIJCtXrrx//76enp6np6fqPwX5+xi51sJIkUhEl5mPDOxeWOyHSIVamz4OXnS603jVWKKFhcX7779Pd0VFRamYtoQ9B93SpUsNDQ1VrwCADERroHO8vb2dnZ1VPJjJ/Obq6qo8de/kyZNp7/ampqZz584pLJfm/ygpKaE3gzaVl5d7e3vTMdNdLTIysk+fPjLvR0Uikbu7e25urpub2/r16xWe+PDhw9ra2m6pI2iSjrQgdn+nkJAQhcc0NzeHh4erMrU0j8djB2Z5eXmEECcnJxV7VVFDhw6ly//5z38UHkN7S+rr67/77rvk7zEeexI2hRRO4Q3aQUcar3pL9Pb2pql3hEKhKj1I09LSaFLZXr164f0mdBKiNdAqzFth5e+G9fT09u3bN3z48DavlpaWJhAICCHymYtl8Hg89oSzp06dkn/9xufz2ZnfIiMjmYsr19DQ4O3tLZFIPv/88zYPVoidjUAsFis/ODMz8+zZs05OTuxUBDU1NZ6engKBYNasWdu2bVN4YnJysouLS2ZmZscqCRyBFkTRPPiEkMzMzI0bN8onKN+2bVtJSQk7WwPzq1OYAkS+0+Mnn3wifxj7ly9/nXnz5tHg8Ndff5UZG8NgQkFCiKOjI5OJ7vXXX6d7L168qPzzWmt52IHj0Hi7qMRhw4atWLGCrp44caLNO2lERARd3rNnD3saAIAOQLQGWqWmpob8vSOQQsbGxhEREW1m1A0PDyeE2NraDhw4sM2i2XPgtvb6bePGjXReo6ampiVLlly/fl3JNcvKypYuXXr//v09e/aYm5u3WQeF6CgXwnrprtC1a9dWr17d0tLCfvqsrq52d3f//fffra2tly5d+uDBA8H/k52dnZGRkZycvG7duvXr1/fp0+ftt9/uWCWBI9CCKDs7OxcXF7p66dKlhQsXpqSkCIVCiURy//79VatWxcfHW1tbs//bM79AiUTCpHNgMzIyYvcZY+Ztky+XuQJD/h9i4MCBNEFlS0vLvn37ZIYe1dfXnz9/nhCir6//2WefMRsXLFjADGBj6rZu3TqZPwW//vorXS4uLlbw6wDOQ+PtuhJ9fHxompCysrKQkJDWPkFLJJLg4OCMjAxmdfny5ap/zARoDaI10B6VlZXM9CY5OTltHszn88PCwpR0YYqJiWG+FCmfTImytLRkT8Py1Vdfyb/A7tWr14kTJ2jfp7q6Om9v78DAQPnxJ8wj19y5c//444/du3dPmTJFlTrIy83NZffXP3LkSElJSX19vUQiaWlpaW5uFolEpaWlaWlpgYGBq1atqqqqMjExobelioqKxYsXM5M1FRYWzp8/fy7L/PnzFy9e7OPjk5iYKJFIZs6cqUqXMOAstCAZvr6+7D5gDx48WLt2raOj4xtvvOHq6nrt2jUej7dv3z72iBT6/l7h73Dx4sU0Wf/y5cvlDxCLxewhowpHpq1evZqGXklJSaGhoXRXS0tLSEgI87zu7u5OH1WNjY03bdrEruT8+fOTkpKqqqoePny4Y8eO4OBguvfbb7+NjIzctWtXu+ZQBs1C45WnxhJ5PN6RI0ecnJyY1aioqFWrVrFfrDCqqqo8PT1PnjzJrHp7e/v6+nas8gBsevhzDC+65ubmsrKyx48fHzx4kPkrbGJi4uLi4uLiYmtrqzz72dmzZ5mufadPn6Y5o37//fcrV6588803TJxjaGjo4+MzZsyY4cOHK+y+X1dXl5ubGxcXx87zSwgxNTX94IMPZs2aJZMMSiQS7d27N6pFo30AAANmSURBVD4+nr3RxsZm8ODBAwYMEIvFpaWlt2/f/uuvv0xNTcPCwiZMmNDe30ljY2N5eXlubu7evXuVjyOX9/777x86dIgQUlxcvGzZsqKiIhVP/P7770eOHNneqoLGoQUpkZqaunHjxurqavldPB7Pz8/P3d2d+RHKysqys7O/+OIL5mA+nz9nzpwZM2YMGjSI/SAbFBR06tSpwYMHJyUl0cEwUqm0tLT0yZMnx48fp+n1CCEvvfTSzJkzXVxc7Ozs2P8QlZWVK1asoJHhhAkTnJycXnrppaSkJGb67CVLlgQGBsrMMRUSEsIkopTH5/PpjAWEEH19/alTpx44cICO/AFuQuNtkxpLlEgkhw4d+vrrr5mekAMGDHB0dHRwcLCyssrLy7t3797t27eZJCtmZmaBgYHsj/MAnYFoDV54//3vf729vRXumjx5cmRkpPLTd+7ceebMGfbtauLEicxLShkRERH01RpbSkrK2rVrW7u+tbX15cuX5bffunUrOjr6p59+UjhK5JVXXlm4cOGCBQs61gMkKipqz549HTiRELJ//37mHhMXF7d582YVz2rtxwTuQwtSrqysbOPGjXfu3GFvtLS0/PLLL8ePH8+sMjGYwtM3bdrk5eVFV5lxbjt27GAP9cnLy1P+YDd+/HiZ69fX12/duvXq1av19fXs7cwYm9auduXKlcDAQHZnOQMDg40bN44bN47JoWdpablgwYKPPvqof//+SuoDHIHGqyI1llhUVHT48OGrV6+yRxmwLzV79uxPPvmkd+/eaqg3ACEE0RqARCK5cOHC1KlT+/bt2/2l19XVZWRklJWVVVRU1NTUWFhY8Pl8Kysre3t7mffiANykIy1IKBRmZ2fn5ORYWFjY2dnZ2tpyod+vRCLJy8vLysqqqqqysrIaMmSIvb298lOam5tzcnLu3r3b2Njo4OBgb29vbGxcVVV16tQpGxub6dOnc+Hngu6hI423K0psbm7OyMgoKCgQCoU1NTUvv/xyv379hg8f/sYbb3RFzUHHIVoDAAAAAADgImQZAQAAAAAA4CJEawAAAAAAAFyEaA0AAAAAAICLEK0BAAAAAABwEaI1AAAAAAAALkK0BgAAAAAAwEWI1gAAAAAAALgI0RoAAAAAAAAXIVoDAAAAAADgov8DlPpWwSxLP2kAAAAASUVORK5CYII=;" parent="3tAOK4Fq8SH2DW3hNeqI-8" vertex="1">
          <mxGeometry y="19" width="1167" height="521" as="geometry" />
        </mxCell>
        <mxCell id="3tAOK4Fq8SH2DW3hNeqI-4" value="" style="shape=image;verticalLabelPosition=bottom;labelBackgroundColor=default;verticalAlign=top;aspect=fixed;imageAspect=0;image=data:image/png,iVBORw0KGgoAAAANSUhEUgAABI8AAAIJCAIAAACjroqqAAAACXBIWXMAABcSAAAXEgFnn9JSAAAAB3RJTUUH6AoPBx0E2V6FOAAAACR0RVh0U29mdHdhcmUATUFUTEFCLCBUaGUgTWF0aFdvcmtzLCBJbmMuPFjdGAAAACJ0RVh0Q3JlYXRpb24gVGltZQAxNS1PY3QtMjAyNCAxNjoyOTowNE68GxMAACAASURBVHic7N15XFXV4v//BQeQQSaFVJLJCU0lKGdEsUwtr4qKil5H6GpqljfB2RRz1tRPmgqOXVPMKbtZaWmAQ06ZWlLigChIogiIwlEOR35/nO/vPLhMHvWcvTfwej4+j89jsfc667zpdu6H92fvs7ZZUVGRAAAAAAAojLncAQAAAAAAZaCtAQAAAIAS0dYAAAAAQIloawAAAACgRLQ1AAAAAFAiC7kDAEbzxRdfXLp0qUePHp07d5Y7CwAAAPCiaGuoIo4dO7ZgwQIhRIMGDWhrAAAAqAK4ExJVQU5OztSpU+VOAQAAABgTbQ1VwaxZs+7evSt3CgAAAMCYaGuo9Pbu3fvjjz+6u7vLHQQAAAAwJtoaKre0tLR58+Y1btw4MjJS7iwAAACAMdHWUIlptdrIyEiNRvPpp59aWVnJHQcAAAAwJtoaKrH169f/9ttvH330kY+Pj9xZAAAAACOjraGySkxMXLVqVYcOHUaOHCl3FgAAAMD4aGuolB49ehQREWFnZ7d48WIzMzO54wAAAADGx9OxUSktWbIkOTn5s88+e+mll+TOAgAAAJgE19ZQ+Rw9enTbtm39+/fv3r273FkAAAAAU+HaGpTo8uXLT548KXGwZs2a9evXz87Onjp1qoeHx8yZM2XJBgAAAEjDrKioSO4MqJQeP368c+fOH374Yc6cOU2aNDHkJWq1eteuXRcuXMjIyGjRokVAQECrVq1sbGxKz/Tz81Or1SUO2tranjt3bubMmbt27XJzc2vZsmXxs2lpaYmJiUIIT0/Ppk2bCiHmz59vb2//nL8eAAAAIDeureGZqdXq2NjYjRs3ZmZmCiGysrIMedWRI0emTZume4mZmdmZM2c2b97s6em5adOm+vXrG7KC7mrb3bt3hRDp6enp6ellTrtx48aNGzeEEJGRkbQ1AAAAVF60NTyDvLy8L7/8cvPmzdnZ2c/0wri4uAkTJmg0Gg8Pj5UrVzZp0uT48eNRUVE3btwYNGjQxo0bdVfD9BYvXpyfn19iEZVKJYRo0aJFXl5e6bfIycm5cuWKEKJ+/fr16tUTQlhbWz9TSAAAAEBRuBMSz2Do0KEXL15s2rTpxYsXNRqN7uAXX3zRrl27Cl6VmJg4aNAgjUajUqn279/foEED3fE///wzJCREq9U6OzsfPnzYzs7uRbLFxcW99957QoiIiIh//etfL7IUAAAAoATsCYlnsGLFilOnTu3YsSMsLMzwVy1atEhX7YYMGaKvakKIV155pWvXrkKI7OzsrVu3Gj0tAAAAUKnR1vAMXF1da9SoIYTw9/c38CWHDx8+ffq0bhwSElLirP7Ipk2byry/EQAAAKi2aGt4Ho6OjgbO3LZtm27g4OBQeutIf39/MzMzIcT9+/e5vAYAAAAUR1urmtatWxcXF/dMLzl69OjatWsNnGxhYdD+NGq1+syZM7rxa6+9Zm5e8t83e3t7T09P3Zi2BgAAABRHW6uaDh06NH78+H379hk4//vvvx8zZszhw4cNnK/bnvGpTpw4UVBQoBu7ubmVOad58+a6QWZmZm5uroEBSuvSpUtSUlJSUhJbjAAAAKBqoK1VTRs2bGjatOnUqVO/+uqrp07et29fRERE06ZNN27caNwYZ8+e1Y+dnJzKnFO7dm39OC0tzbgBAAAAgMqLtlY1OTk5ffHFF6+++urs2bMrvsNw165d06ZNa9my5RdffGH4t9EMpHuStY6zs3OZc2rWrKkf09YAAAAAPdpalWVvb7958+ZWrVrNmzdvw4YNZc7Zvn37rFmzWrVqtXnzZnt7e6NnyMrK0o/Lu7ZW/H1pawAAAIAeba0qs7W1Xb9+fUBAwNKlSz///PMSZzdv3hwVFdWhQ4f169fb2tqaIoAhbU33SACdW7dumSIGAAAAUBnR1qo4GxubdevWdenS5bPPPlu+fLn+eHR09KJFi7p06bJu3Tpra2sTvXtRUZF+XF4hfPz4sX6sVqtNlAQAAACodGhrVZ+VldXq1au7d+8eHR29cOFCIcSqVauWL1/evXv31atXW1lZmfSt9ePS2/frFG9o5X23DQAAAKiGDHpqFio7CwuLFStWTJkyZcuWLWfOnElMTOzVq9fixYsN3Ij/udWpU0c/zs/PL3MObQ0AAAAoE9fWqguVSrVo0SJ3d/fExER3d/dFixaZuqqJ/21r9+/fL3MObQ0AAAAoE22tutBqtVOmTElNTW3evHlqaurUqVO1Wq2p37Ru3br6cXltrfhOJOU9QRsAAACohmhr1YJGo/nwww/3798/atSovXv3Tpgw4dtvv504caJGozHp+zZq1Eg/vnPnTplzrl69qhtYW1u/9tprJs0DAAAAVCK0tarv8ePH48eP/+mnn8aOHTt16lQhxPvvvx8REfHjjz+OHz+++JaMRtexY0cXFxfd+Ndffy09QavVpqSk6MatW7cuvps/AAAAUM3R1qo4tVo9evTohISEf//73xMnTtQf/9e//jVjxoyEhIQxY8aYbt98lUoVHBysG58/f/7Ro0clJty8ebOgoEA37ty5s4liAAAAAJURba0qe/jwYVhY2MmTJ6dPn/7ee++VODt8+PC5c+eePHkyPDz84cOHz7TykydPyhyXFhISohtoNJrffvutxNmjR4/qBq6urvqZAAAAAAQ7+L+469evx8fHX758+ebNmy+99FKTJk18fX0DAgIMea1ard61a9eFCxcyMjJatGgREBDQqlUrGxsbowS7f/9+eHj4xYsXo6KiQkNDy5wzaNCgGjVqTJ8+feTIkZs2bXJwcDBwcf0FsRLj0ry9vbt27Xro0CEhxFdffdWhQwf9qaKioj179ujGEyZMMNYvDgAAAFQNtLXnp9Fo1q1bFx0dXXyvju+//14I0alTp6ioqIp3ODxy5Mi0adMyMzOFEGZmZmfOnNm8ebOnp+emTZvq16//gtnu3bs3atSoq1evLlq0SH8vYpmCg4Nr1KgxadKkoUOHbtmypVatWoasn5GRoR///fffFU+Oioo6e/Zsdnb2gQMH4uLiunTpoju+bt26S5cuCSE6dOjAhTUAAACgBLOioiK5M1RWH3744YEDB8o7a2dnt2fPHm9v7zLPxsXFTZgwQaPReHh4rFy5skmTJsePH4+KikpPT3dxcdm4cWPTpk1fJFvfvn0vX768bNmyt99+25D5hw8f/vDDD5s0abJ3794KpuXn59+6dev69evz58+/ffu27qCTk9PHH3/cpEmTl19+2dbWtswXnjt3bvTo0bm5uQ4ODgMHDmzTps2BAwd079WuXbvo6Ghra+tn/BUBAACAKo629py++eabyZMnCyFsbGw6der08ssvp6WlnTp1qvhTxZo3b/7VV19ZWlqWeG1iYuKgQYM0Go1Kpdq/f3+DBg10x//888+QkBCtVuvs7Hz48GE7O7vnjrdmzZqWLVsGBgYa/pJffvnl3Llz48ePr2DOf//738jIyPLOLlmypE+fPuWdvXLlyty5c0+fPq0/4uDgMGbMmOHDh1tZWRmeEwAAAKgmaGvPQ6vVdujQIScnp1evXlOnTtVvUp+VlTVt2rT4+Hj9zDlz5gwePLjEy4cNG6YrLcOGDZs5c2bxUx988MHBgweFEP/+979L7wtSBSQlJV2+fPnBgweNGjVq0aJFedfiAAAAALAn5PP4/fffc3Jy+vTps3TpUn1VE0LUqlVr7dq1vr6++iPnzp0r8drDhw/rry+V/rKW/simTZvy8vKMH11uPj4+vXr1GjJkSJs2bahqAAAAQAVoa8/j+PHjDg4Os2fPNjMzK3HK3Nx87ty5+h8TExNLTNi2bZtu4ODg0KRJkxJn/f39dWvev39/69atRs4NAAAAoPKgrT2P2rVrT5kypbzvlTVr1kx/wa34dpFCCLVafebMGd34tddeMzcv+c/f3t7e09NTN6atAQAAANUZO/g/j9JfRSvB3d1dtzV/iU38T5w4oX86WXn7+zdv3jwlJUUIkZmZqdtE8cUDAwAAAKh0uLZmEunp6bqBn59f8eNnz57Vj52cnMp8be3atfXjtLQ0E6QDAAAAUAnQ1owvMzNT//Donj17Fj919+5d/djZ2bnMl9esWVM/pq0BAAAA1RZtzfjOnz+vG7zxxhuNGzcufiorK0s/Lu/amr29vX5MWwMAAACqLb63ZmRFRUUxMTFCCCsrq2nTppU4a0hbq1Gjhn5869YtA9/Xx8fn2YICAAAAppGUlCR3hCqCtmZkP/zww4ULF4QQI0eO9PDwKHG2+LPIy3va2OPHj/VjtVpt+FvzqajUfHx8+E8QkB2fREB2fAyrAK4iGBF3QhqTRqNZvny5EKJ58+bvv/9+6QlWVlb6cent+3WKN7TyvtsGAAAAoMqjrRnTmjVrUlNTXVxc1qxZU/yGRr06derox/n5+WUuQlsDAAAAIGhrRnTkyJG1a9daWlquWrWqbt26Zc4p3tbu379f5hzaGgAAAABBWzOW5OTkSZMmCSHmzZv32muvlTeteIsrr60V34mkvCdoAwAAAKjyaGtGcOfOnfDw8Nzc3ClTpgQHB1cws1GjRsVfVeacq1ev6gbW1tYVFD8AAAAAVRt7Qr6o3Nzcd999Nz09fcyYMaNGjap4cseOHV1cXDIzM4UQv/76a+kJWq02JSVFN27dunWZX36D9OLj4039Fmq1WoJ3CQoKMvVbAAAAwFhoay8kNzd35MiRSUlJgwcP/uijj8qcc+XKFTc3Nzs7OyGESqUKDg7esGGDEOL8+fOPHj2ytrYuPvnmzZsFBQW6cefOnU0cHwaJj4+Piooy9bvcu3dPgndJSEiYPXu2qd8FAAAARkFbe34PHjwICwtLTEzs3bv3xx9/XOacAwcOTJw4MSYmplOnTrojISEhuram0Wh+++23Dh06FJ9/9OhR3cDV1TUkJMSU8WGooKAgCS5J+fj4xMXFmfpdAAAAUInQ1p5TTk5OeHj4xYsXPT09hw0b9tdff+lPabXagoKCzMzMgwcPHjx40NHRsXgl8/b27tq166FDh4QQX331VfFTRUVFe/bs0Y0nTJhgY2Mj1W8DAAAAQHFoa8/jzp07o0aN0m0HcuPGjQEDBlQwuWfPnhYW//PPOSoq6uzZs9nZ2QcOHIiLi+vSpYvu+Lp16y5duiSE6NChAxfWqpuDBw/KHQEAn0RAfnwMgeLYE/KZ3bp1a8iQIfqdG5+qT58+JY64uLisXbvWwcFBCDF58uSlS5cmJCRMmzZt5cqVQoh27dqtXbtWpVIZNzYUbvDgwRLsMgIAAIBKhLb2zE6cOJGammrgZE9Pz1dffbX0cX9//+3bt7dp0yY3N3fDhg2jR4/eu3evg4NDZGTk+vXrS2w9AgAAAKAa4k7IZxYSEmKU2xQbN268devWF18HAAAAQJXEtTUAAAAAUCLaGgAAAAAoEW0NAAAAAJSItgYAAAAASkRbAwAAAAAloq0BAAAAgBLR1gAAAABAiXjeGqAIsbGxXl5ecqcAAACAgnBtDQAAAACUiLYGAAAAAEpEWwMAAAAAJaKtAQAAAIAS0dYAAAAAQIloa4AiDB48OD4+Xu4UAAAAUBDaGgAAAAAoEW0NAAAAAJSokj0de8yYMXXq1GnYsGGDBg0aNmxYr149MzMzuUMBAAAAgPEppa1lZ2enp6f//fff6enp6enpHh4eQ4YMKT0tMDDwzz///Oabb5KSkgoLC21sbLy9vfXlrUGDBo0bN5Y+PAAAAAAYnZxtbebMmbp69vfff6vVaiGESqXy8vLy8vJq2rRpmS8ZOnSobvDo0aOzZ8/+8MMP+/fv//PPP/UTkpKSJEgOAAAAAKYmZ1vbtWuXbmBlZTVgwIAePXq8/vrrNjY2hrzW2to6ICAgICAgMjJy9uzZP/zwgymTAgAAAIDU5L8T0tvbOzo62tPT8/le7ujouHLlSktLy//+97/GDQYAAAAAMpJ5T0hLS8sXqWp6c+fOtbe3N0okAAAAAFACma+tvf322y9e1YQQNjY2vXv33rZt24svhUokPl4kJMgdwkhOnuyRkBBUZX6d2bPlTgAAAFD5ydzWOnXqZKyl2rdvT1urbqKi5E5gPO3aTYmPlzuEkcTH09YAAACMQOa21qhRI2Mt1aBBA2MthUokKKiKFIOUlNteXl5ypzAOHoIIAABgFDK3tZdeeqnEkezs7Hbt2lX8qt9//71GjRolDrq4uBgzGQAAAADISua2VnprEGdn5z///PPhw4cpKSn79u2LjY0tKioyNzcfMmRInz59vLy87OzsVCpV6aXs7OwkiQwAAAAAUpC5rVlaWpY+qFKpHB0dX3311VdffVUIsX379qFDh86YMaPipSws5H8aAQAAAAAYi8w7+Js97Qsu/fr1E0L07dtXkjgAAAAAoBQyt7Wn0u3v7+7uLncQAAAAAJCU0ttazZo19f8bAAAAAKoPpbc1c3NzYcANkwAAAABQxcjc1goLC421lFqtNtZSAAAAACA7mdvad9999+TJkxdfR6vVHjp06MXXAQAAAACFkHnX+8mTJ0+ePPmp03x8fCQIAwAAAADKofTvrQEAAABA9URbAwAAAAAloq0BAAAAgBLJ/L21vn37zps3z8LiRWNoNJpZs2Z9/fXXRkkFAAAAALKT+drakCFDXryqCSEsLS0HDx784usAAAAAgELI3Na8vb0VuBQAAAAAyE7Otta+fXtbW1tjrWZnZ9e+fXtjrQYAAAAA8pLze2tbtmwx4moqlcq4CwIAAACAjNgTEgAAAACUiLYGAAAAAEok8w7+z+Tu3bu7du06cuRIcnLyw4cPnZ2dmzZt2r179969e1tbW8udDgAAAACMSba2Fhoaqlaryzxlbm7+2Wefubu7649otdq1a9dGR0cXFBToD2ZmZh47duzYsWOrV69eunRp27ZtTR4aAAAAAKQiW1vr3r370qVLtVpt8YNeXl6vv/76yy+/7OjoqD+o0WgmTJgQFxdX3lIZGRkjR46cNm3a8OHDTZgYAAAAACQkW1sbNWqUr6/vxIkT79y5o1Kp/vGPf4waNapZs2alZ37yySfFq5pKpQoJCendu3eTJk1UKlVycvK333771VdfLVy4sEGDBh07dpTwlwAAAAAAU5Hze2ve3t4WFhaenp7Lly9v0aJFmXPOnj371Vdf6X90cXGJiYlp3ry5/kjLli1btmw5ZMiQcePGRUZGHjp0yM7OzuTRAQAAAMDE5NwTctasWZaWljt37iyvqgkh1q9frx9bWFiUqGp6Xl5eGzZsKCoq2r17t0myAgAAAIC0ZGtrly5diouLW716tZOTU3lz8vPzjx07pv+xf//+ZVY1HTc3t/Dw8J9++snIQQEAAABADrK1tW+//fbtt99u0qRJBXPOnTun0Wj0P/7jH/+oeM1u3bpdvnzZOPkAAAAAQFaytbXTp09379694jm//fabfmxlZfXqq69WPN/NzS0vL88I4QAAAABAbrK1tfT0dF9f34rnFG9rLVu2rFGjRsXz8/LyKrivEgAAAAAqEdnaWk5OTq1atSqYoNVqz58/r/+xdevWT10zMzPT2dnZCOGey+PHj7du3TpkyJDnvhszLi4uNDQ0NDT07Nmzxs0GAAAAoNKRbQd/Kyur/Px8Kyur8iZcunQpPz9f/6Mhbe3ChQv16tUzTr5noVarY2NjN27cmJmZKYTIysp6jkUyMzOnT5+ue+3du3eNHBEAAABAZSNbW/P29k5MTAwICChvQoknYvv7+z91zaNHjz717krjysvL+/LLLzdv3pydnf2CS82YMeP5ah4AAACAKkm2OyE7d+785ZdflndWo9Hs2LFD/2ObNm2e+szr27dv//jjj2+88YbRIhpgzJgxa9eu9fLysrS0fJF1YmNj4+PjjRQKAAAAQFUgW1sLDQ09fvx4bGxs6VNFRUVTp04tfjfg4MGDn7rg/PnzmzZtWsED2UxhxYoVp06d2rFjR1hY2HMvkpKSsnjxYiOmAgAAAFAFyNbW6tSpM23atDlz5ixatCg3N1d//O7duxMnTty/f7/+SIcOHZ661/+GDRt+/PHHf//736aKWw5XV1fdTpWG3KhZJq1WGxERoVar27Zta9RoAAAAACo32b63JoQYPHhwYmLi5s2bd+zY4e/v7+rqevv27d9++634E7EbN268fPnyChbJz89fsWLFf/7zH29v71atWpk+ddkcHR2f74WrV6/+448/3N3dZ82a9dTHfwMAAACoPuRsa0KIefPmNWnSZMmSJb/88kvps2+//fbcuXMdHBxKHNdoNNnZ2SkpKUePHt27d69uJ8br16/3799/xYoVPj4+UkT/XxYWz/NP8ty5c9HR0SqVatmyZU/9Yh4AAACAakXmtiaEGD58eNeuXbdt23b06NEbN24UFRXVqVOndevWAwYMKPP2wvz8/NatWxcWFpY+de3ataFDh545c8b0qUtSqVTP+pL8/PzJkydrtdr333/fz88vPT3dFMEAAAAAVFLytzUhhJubW2RkZGRkpCGTbW1tExMTTR1JAvPnz79586afn9+4cePkzgIAAABAcWTbZaSaO3To0O7du21tbZctW/Yc1+UAAAAAVHm0NRlkZmbOnDlTCDFr1ix3d3e54wAAAABQIjnbWtu2bct83trziY2NrSyb4E+fPj07O7t79+79+vWTOwsAAAAAhZLze2s5OTkPHjww1mr379/Pyckx1mqms3379oSEhDp16nzyySfGXbmCzTAPHjxo3PdSiEeP6ubkPEpJqQT/uT9VWlqa3BGMyCslJUXuDMDzqFqfRKBS4mNYKTz1YcgwFpl3GcnOzjbWUpWiql2/fn3JkiVmZmaLFy9+7ke0lScpKcm4CyqftbVwcrL28nKSO4hxeHl5yR3BaKrS74Lqhn97AdnxMVS+iv/slOV5WlWVzN9bu3btmgKXMpHCwsKIiAi1Wj1q1Kj27dvLHQcAAACAosl8be3UqVOpqakvvtPGzZs3T58+bZRIprNhw4aLFy8KIe7fvz9nzpwSZ+/fv68fb9u27eTJk0IIPz+/4OBgCTMCAAAAUAqZ29qjR4+6du0qbwbJXL9+XTfYs2dPxTNPnz6tK5/Z2dm0NQAAAKB6Ygd/AAAAAFAima+tVSv9+vVr1qxZeWczMzPXr1+vG/fs2dPX11cI0bhxY4nCAQAAAFAY2pp02rZtW8ET4dLT0/VtrVu3bj169JAqFwAAAAAlkrmt1axZc9++fUbZZaRv374PHz40Sqrn8OTJkzLHAAAAAPB8ZP7eWufOnV+8qgkhPDw8AgMDX3yd51ZQUFDmGAAAAACej8xtzYhPP/T29jbWUs8hIyNDP/77779lTAIAAACgapDzTkgnJ6fatWsba7XatWs7OTkZazUD5efn37p16/r164sXL9YfXLlypYODQ5MmTV5++WVbW1uJIwEAAACoGuRsa6dOnTLiakOHDh06dKgRFzTEoUOHIiMjSxzMycn56KOPhBBLlizp06ePgUtZWFiYmZkVFRUJISwtLY2bEwAAAEClw56QL6R37969e/c2ylIvvfTSpUuXjLIUAAAAgCqAp2MDAAAAgBLR1gAAAABAiWhrAAAAAKBEtDUAAAAAUCLaGgAAAAAoEW0NAAAAAJSItgYAAAAASkRbAwAAAAAloq0BAAAAgBLR1gAAAABAieRsa2vWrGnduvVbb7116dIlGWMAAAAAgALJ1tYOHDjwf//3f7m5uTdv3ly1apVcMQAAAABAmWRra1u2bFGpVP8vhDk3ZAIAAADA/5CtJl2+fHn69OlOTk6enp4ffPBB6QktW7Z8pgWvX78eFxdnpHQAAAAAIDMLGd+7d+/eQ4cOLe9sQUHBM622c+fOTZs2JSUlvXAuAAAAAJCfbNfWPD09jxw5YsQFHz58aMTVAAAAAEBesrW1Tp06LVy48MqVK8ZaMC0tzVhLAQAAAIDsZGtrQ4YMefDgwaBBgz777LPU1NQXXO3GjRvnzp0zSjAAAAAAUALZvrdWp06diIiI+fPnf/75559//rmDg4OTk1OJOT4+PrJkAwAAAADZybnLyPDhw3NyctasWVNUVJSbm5ubmytjGAAAAABQFJkfdPbBBx9s3br1jTfeKH1hDQAAAACqMzmvrem0bt26devWpY/7+PgYvh1/WlpaSEhIdna2UaMBAAAAgGxkvrZmLPXr1+/YsaPcKQAAAADAaKpIWxNCuLi4yB0BAAAAAIxG/jshy/Pjjz8+0/zw8PA+ffqYKAwAAAAASEy5bc3T0/OZ5ru6urq6upooDAAAAABITLltrYTk5ORdu3adOHHixo0bGo3G1dXV39+/b9++gYGBckcDAAAAAOOrBG2toKBg4cKFO3bsePLkif5genp6enr6d99917Zt2xUrVtSuXVvGhAAAAABgdErfZSQjIyM0NHT79u3Fq1pxp06dCgkJuXLlisTBAAAAAMCkFN3WCgoKxo0bl5iYWPG09PT0sWPH5uXlSZMKAAAAACSg6DshFy1adPHiRQcHh8GDB3fs2NHd3d3JycnKykqr1ebl5d26dSspKenYsWOHDx9OTU2dP3/+ggUL5I4MAAAAAMah3LaWkpKyY8eONm3arFq1ysnJqfgplUplZWXl7OzcokWL/v37Z2VlzZkzZ+/eveHh4Q0bNpQrMAAAAAAYkXLvhNy7d6+zs/OaNWtKVLXSatWqtWLFCn9//3379kmTDQAAAABMTblt7ZdffhkzZoy9vb0hk1UqVXh4+MmTJ02dCgAAAACkody2lpKS0qlTJ8Pn+/n5paSkmCwOAAAAAEhKuW0tPz+/Xr16hs93cnJiW0gAAAAAVYZy25qzs/O9e/cMn5+Tk2NnZ2e6PAAAAAAgJeW2tfr16yckJBg+/+zZs97e3qbLAwAAAABSUm5bCwwMjI6OfvjwoSGTNRrNunXr2rdvb+pUAAAAACAN5ba1Xr163blzBSO9hAAAIABJREFUZ/To0dnZ2RXPzMjIGDFixKVLl4KDg6XJBgAAAACmptynY3t6eg4cODA2NrZbt26hoaGBgYEeHh5OTk5WVlaFhYX5+fm3b99OTk6Oi4v76aef1Gp1SEgId0ICAAAAqDKU29aEEJGRkb/++uuVK1diYmJiYmIqmOnh4TFjxgzJggEAAACAqSn3TkghhJ2dXUxMTKNGjSqeVq9evTVr1tja2kqTCgAAAAAkoOi2JoRwc3PbuXNn//79zc3LjtqqVavdu3c3btxY4mAAAAAAYFKKvhNSx87ObsGCBWFhYfv27Tt+/HhaWlp+fr6Li4ufn19wcHCXLl3kDggAAAAAxlcJ2ppOo0aNIiIiIiIi5A4CAAAAAFJQ+p2QAAAAAFA90dYAAAAAQIloawAAAACgRLQ1AAAAAFAi2hoAAAAAKBFtDQAAAACUiLYGAAAAAEpEWwMAAAAAJaKtAQAAAIASWcgdoPp68uTJTz/99NdffyUnJ2dmZrq5uTVo0KBt27avv/663NEAAAAAyI+2Jo8LFy5ERUUlJiYKIVxdXV1dXRMSEr799lshxFtvvTV9+nQ3Nze5MwIAAACQE21NBr///vuQIUMKCws9PT0/+eSTtm3bCiGKiop27ty5cOFC3QW3r7/+2sHBQe6kAAAAAGTD99aklpeX99FHHxUWFjo4OGzatElX1YQQZmZmgwYNmjRpkhAiLS1txowZssYEAAAAIDPamtSOHj2ampoqhHj77bfr169f4uyQIUOsrKyEEHFxcY8fP5YhHwAAAABloK1J7Y8//tANVCpV6bMqlcrV1VUIodFo/vrrL0mTAQAAAFAS2prU0tPTdYPTp0+XPqtWq2/fvq0b29nZSRcLAAAAgMIot6198cUXFZwNCAjw8fFp2rRphw4dxo0bFxcXJ1mwF1SvXj3d4OrVq6V/x99//12r1QohatWq1aBBA6nDAQAAAFAM5ba1BQsWVHD2+PHjSUlJf/7559dff92vX7/Y2NhJkybpeo7CtWnTRj9esmTJqVOn9D8+efJk7dq1uvF7771X5q2SAAAAAKoJ5bY1Q5ibm9epU6dr164xMTEeHh7r16+XO9HTderUqVGjRrpxYWFheHj4nj17dD9++umnJ06cEEL07dt3+PDhskUEAAAAoABV53lrI0aMCAkJee+99+QO8hTm5uarVq0aMGDAw4cPhRAajWb69OmXL182NzfftGmTEOKf//znzJkzzczM5E4KAAAAQE5Vp62pVCr9/hwK16BBg88++2z8+PFqtVp3ZMuWLUIIBweHJUuWdOnSRc5wAAAAAJShct8JWdy3337r7OwsdwpDBQQEbN26tVatWsUP1qxZs2HDhnJFAgAAAKAolfva2pMnT7Kzs69du7Z///7du3d369ZN7kTP4JVXXvHz8/v555/1R9LT00NCQlavXl18JxLD+fj4lHfq4MGDzxNR8R49qpuT8yglJUfuIEaQlpYmdwQj8kpJSZE7A/A8qtYnEaiU+BhWCt27d5c7QnUhf1s7f/78oEGDyjxVQf0ozdzcfMSIEUYKZXK5ubkTJ048fvy4g4NDvXr1kpKSdMfv378/atSodevWBQYGPuua+kWqD2tr4eRk7eXlJHcQ4/Dy8pI7gtFUpd8F1Q3/9gKy42OofBX/2flMf8OjYvLfCenj4xMbG7ty5cp3333X29v7+RYxMzObNm2av7+/cbOZiFqtDgsLO378uIWFxdq1a/fu3du/f3/92cLCwgkTJpw7d07GhAAAAABkJ39bs7Gxee21195+++3IyMgDBw5s2rRJv8H9U5mbm9eqVeutt97atm1bJdry/qOPPvrjjz+EEDNnzmzVqpWFhcWCBQsmTpyo3wdSrVZ//PHHT548kTUmAAAAADnJfydkCQEBAXv27Bk5cuS5c+eq5K19x44d031XzcXFZfDgwfrjY8eOrVGjxuLFi3U/Xr58+bvvvuvVq5c8KQEAAADITf5ra6VZW1svXLhQ7hSmsm3bNt2g9H2bYWFhw4YN0/946tQp6WIBAAAAUBgltjUhhLe393N/h03hLl26pBv4+fmVPjt9+nT9L37t2jXpYgEAAABQGIW2NSFEZGSk3BFMoqCgQDewt7cvfdbc3PzNN9/UjW1tbaWLBQAAAEBhFPe9NT19adFJTk7etWvXiRMnbty4odFoXF1d/f39+/bt+xw73curadOmx44dE0LcuHGjzAktW7bUDVq0aCFdLAAAAAAKo9xra3oFBQVRUVE9e/bctGnTX3/9lZ+fr9Fo0tPTv/vuu3fffXf48OH37t2TO+Mz6NSpk26wf/9+tVpdesLly5d1g/bt20sXCwAAAIDCKL2tZWRkhIaGbt++vbzt7E+dOhUSEnLlyhWJgz23oUOHNm3aVAiRkZGxdOnSoqKi4mevXbu2adMmIcSgQYPatWsnT0QAAAAACqDotlZQUDBu3LjExMSKp6Wnp48dOzYvL0+aVC9IpVJ99tlnzZo1E0Js27YtPDz89OnTOTk5KSkpmzdvHjhwoFqtbtOmzfTp0+VOCgAAAEBOyv3emhBi0aJFFy9edHBwGDx4cMeOHd3d3Z2cnKysrLRabV5e3q1bt5KSko4dO3b48OHU1NT58+cvWLBA7sgG8fT03LVr18qVK7/88svjx48fP35cf6p27dozZ84MDg7WPykbAAAAQPWk3LaWkpKyY8eONm3arFq1ysnJqfgplUplZWXl7OzcokWL/v37Z2VlzZkzZ+/eveHh4Q0bNpQr8DOxtLSMjIysqvteAgAAAHhxyr0Tcu/evc7OzmvWrClR1UqrVavWihUr/P399+3bJ002AAAAADA15ba1X375ZcyYMWU+lKw0lUoVHh5+8uRJU6cCAAAAAGkot62lpKToN7s3hJ+fX0pKisniAAAAAICklNvW8vPz69WrZ/h8JyenyrItJAAAAAA8lXLbmrOz8zM99jonJ8fOzs50eQAAAABASspta/Xr109ISDB8/tmzZ729vU2XBwAAAACkpNy2FhgYGB0d/fDhQ0MmazSadevWtW/f3tSpAAAAAEAaym1rvXr1unPnzujRo7OzsyuemZGRMWLEiEuXLgUHB0uTDQAAAABMTblPx/b09Bw4cGBsbGy3bt1CQ0MDAwM9PDycnJysrKwKCwvz8/Nv376dnJwcFxf3008/qdXqkJAQ7oQEAAAAUGUot60JISIjI3/99dcrV67ExMTExMRUMNPDw2PGjBmSBQMAAAAAU1PunZBCCDs7u5iYmEaNGlU8rV69emvWrLG1tZUmFQAAAABIQNFtTQjh5ua2c+fO/v37m5uXHbVVq1a7d+9u3LixxMEAAAAAwKQUfSekjp2d3YIFC8LCwvbt23f8+PG0tLT8/HwXFxc/P7/g4OAuXbrIHRAAAAAAjK8StDWdRo0aRUREREREyB0EAAAAAKRQadoaUFqQiO88J0rEy53DGOo+eiSsreVOYRxBYrYQQXKnAAAAqPRoa6jE4kVQ5zlCdJY7hzHk3L5dt25duVMYSbzcAQAAAKqEStPWkpOTd+3adeLEiRs3bmg0GldXV39//759+wYGBsodDXJKEEFBQXKHMIZHKSnCy0vuFMYRL3cAAACAqqEStLWCgoKFCxfu2LHjyZMn+oPp6enp6enfffdd27ZtV6xYUbt2bRkTAgAAAIDRKb2tZWRkjB07NjExsbwJp06dCgkJiYmJYRN/AJBFfLwU7xIVFSXBuzx69Mja9N8gnT17tqnfQghRNe47AIBqTtFtraCgYNy4cRVUNZ309PSxY8d+8803dnZ20gSDQgQFiTlzJPpL0dQePapbVTYZQfUSHy+iusQHiQRTv1GQqd/g/5Hic5gQL0XzFHGzKWwAUNkpuq0tWrTo4sWLDg4OgwcP7tixo7u7u5OTk5WVlVarzcvLu3XrVlJS0rFjxw4fPpyamjp//vwFCxbIHRmSmj1bdJZkixEJ/p/6J0/GS/ANvKCgzp07m/xdJLlsAAWZHZSQEC93CPyveIn+2xEAYFpmRUVFcmcoW0pKyjvvvPP666+vWrXKycmpgplZWVlz5sz58ccfv/vuu4YNG0qWUFF8fHySkpLkTlE1xcfHJySY/LpBTk5Oxf+eG0Xnzp2ryK4sqH6kuRNSmk+iNHdCApVUSkqKV1XZdqva4u9SI1JuW1u+fPmePXsOHDhgb2//1MlarXbo0KGtWrWaNGmSBNkUiE9FZcf/cQKUgE8iIDs+hlUAf5cakbncAcr1yy+/jBkzxpCqJoRQqVTh4eEnT540dSoAAAAAkIZy21pKSkqnTp0Mn+/n55eSkmKyOAAAAAAgKeW2tfz8/Hr16hk+38nJKS8vz3R5AAAAAEBKym1rzs7O9+7dM3x+Tk4OO/gDAAAAqDKU29bq16//TBvxnT171tvb23R5AAAAAEBKym1rgYGB0dHRDx8+NGSyRqNZt25d+/btTZ0KAAAAAKSh3LbWq1evO3fujB49Ojs7u+KZGRkZI0aMuHTpUnBwsDTZAAAAAMDULOQOUC5PT8+BAwfGxsZ269YtNDQ0MDDQw8PDycnJysqqsLAwPz//9u3bycnJcXFxP/30k1qtDgkJ4U5IAAAAAFWGctuaECIyMvLXX3+9cuVKTExMTExMBTM9PDxmzJghWTAAAAAAMDXl3gkphLCzs4uJiWnUqFHF0+rVq7dmzRpbW1tpUgEAAACABBTd1oQQbm5uO3fu7N+/v7l52VFbtWq1e/fuxo0bSxwMAAAAAExK0XdC6tjZ2S1YsCAsLGzfvn3Hjx9PS0vLz893cXHx8/MLDg7u0qWL3AEBAAAAwPgqQVvTadSoUUREREREhNxBAAAAAEAKSr8TEgAAAACqp0rf1k6ePOnr6/vOO+98+umnWVlZcscBAAAAAOOo9G2tXbt2J06cWLp0qVarHTBgwNWrV+VOBAAAAABGUGm+t1YBOzu75s2bN2/evFWrVlFRUVu3bpU7EQAAAAC8qEp/ba24gICACxcuyJ0CAAAAAIxAKW3t5MmT//rXv1q3bu3r6xsaGnr48OHnWOTChQs1atQwejYAAABIw+n//k/uCICCKKKtrV69esSIEUeOHMnNzX38+PG5c+fGjRsXHR1t4MsfPnx48uTJZcuWjR8/vmHDhiaNCgAAANNxWrlS7giAgsj/vbX9+/evWrWq9PHly5fXq1evd+/eJY5nZ2f/9ddf169fT0lJSU5OTk5O/vvvv4uKinRnAwMDTZ4YAAAAAExP5rZ269atWbNmlXd2/vz5gYGBzs7Ouh8TExOXLl168uRJfTcrwcbGZuDAgSYJCgAAAADSkvlOyE2bNuXn55d3NicnZ/PmzbrxDz/8MGjQoBMnTpRX1YQQU6dOdXV1NX5KAAAAAJCcnNfWHjx4sHfvXiGEr6/vsGHDXn/99dq1axcVFd27d+/XX3/9z3/+k5iYuHPnzvfff//ChQuRkZEajaa8pezs7CZPnhwaGiphfAAAAAAwITnb2tGjR/Pz8wcOHDh37lwzMzP98fr169evX793797Tp0//+uuvT548OW/ePF1Ve/XVV1u2bGlvb6+fbGtr6+Hh0bFjx5o1a8rwOwAAAACAacjZ1s6cOePp6fnxxx8Xr2p65ubmc+bMOX369Ny5c1NTUz09PZctW+br6yt9TgAAABhfVJSYM6eM46X/MpwzR8yebfpAgOLI+b2133//feDAgZaWluVNsLa2HjRoUGpqat26dbdv305VAwAAqDpmzxZFRSX/R4gyDlLVUF3JeW3tzp07bdq0qXhO27ZthRATJ050cXGRJBQAAEAlEx8VL+ITJHijhPh4U7/FbCGizLqY+l06BwWZ+i2EECKoc9BsSd4IVZecbS07O9vLy6viOd7e3kKIzp07SxEIAACgEgqqSn8oxYvOQVK8TZDpC1u8JL8JqjY525pGo7Gzs6t4jm7vkFq1aj11tcePHz948IBLcAAAoNoJChKSXCwKkuCORDOzoLg4k7+LJILkDoAqQObnralUqhecoHfw4MGAgIAXTgQAAAAAiiBzWzOiBw8eyB0BAAAAAIxGzjshhRBardbwq2cVS0lJMco6krl+/Xp8fPzly5dv3rz50ksvNWnSxNfXl8uDAACgOsuZONFJ7gyAcsjc1g4dOtStW7cyn7f2TO7du3fgwAGjRJKARqNZt25ddHS07pHfOt9//70QolOnTlFRUW5ubvKlAwAAkE3Ohx/S1gA9mdvaBx98YMg0Hx8fUyeRUkRERHnd8siRI//4xz/27Nmj2wwTAAAAQLVVdb63Vll88803uqpmY2PTvXv3sLCwbt26OTo66ifk5eVNmjSp+GU3AAAAANWQzNfWqhutVrtgwQIhRK9evaZOnap/3kBWVta0adPi//8nTiYmJu7evXvw4MFy5QQAAAAgO66tSer333/Pycnp06fP0qVLiz8arlatWmvXrvX19dUfOXfunBwBAQAAACiFzNfWQkJCoqKiLCxeNEZmZmZISMjff/9tlFSmc/z4cQcHh9mzZ5feWMXc3Hzu3LnBwcG6HxMTEyVPBwAAAEBBZL62NmTIkBevakIIFxeXHj16vPg6pla7du0pU6bY2dmVebZZs2b6C258bw0AAACo5mS+tubp6Wmspby8vIy1lOk89ato7u7umZmZQgg28QcAAACqOTmvrfXq1cvW1tZYqzVp0qRXr17GWk0u6enpuoGfn5+8SQAAAADIS85ra8uWLTPiaq+99tprr71mxAWll5mZmZGRoRv37NlT3jAAAAAA5MWekApy/vx53eCNN95o3LixvGEAAAAAyIu2phRFRUUxMTFCCCsrq2nTpskdBwAAAIDMeDq2Uvzwww8XLlwQQowcOdLDw+M5VvDx8Snv1MGDB58/GSSRlpYmdwQAfBIB+fExrBS6d+8ud4TqgramCBqNZvny5UKI5s2bv//++8+3SFJSklFDQWqVYl9ToMrjkwjIjo+h8lX8Z2cFlxDwrLgTUhHWrFmTmprq4uKyZs2aGjVqyB0HAAAAgPxoa/I7cuTI2rVrLS0tV61aVbduXbnjAAAAAFAE2prMkpOTJ02aJISYN29eZX8CAQAAAAAjoq3J6c6dO+Hh4bm5uVOmTAkODpY7DgAAAAAFoa3JJjc39913301PTx8zZsyoUaPkjgMAAABAWWhr8sjNzR05cmRSUtLgwYM/+uijMudcuXIlLy9P4mAAAAAAFIK2JoMHDx6EhYUlJib27t37448/LnPOgQMHevXqdfbsWYmzAQAAAFAInrcmtZycnPDw8IsXL3p6eg4bNuyvv/7Sn9JqtQUFBZmZmQcPHjx48KCjo2OHDh1kjAoAAABARrQ1Sd25c2fUqFFXr14VQty4cWPAgAEVTO7Zs6eFBf8BAQAAANUUZUA6t27dGjFiRGpqqoHz+/TpY9I8AAAAAJSM761J58SJE4ZXNU9Pz1dffdWkeQAAAAAoGdfWpBMSEhISEiJ3CgAAAACVQyW4tqbVan/++edp06b17NmzdevWrVu31p+6dOlSly5dNm7cWFhYKGNCAAAAADA6pV9bu3DhwrRp065du1bm2SZNmsyYMePzzz8/evRodHR0jRo1JI4HAAAAACai6GtrJ06cGDZsWHlVTQhhbm7etWvXXbt21a5dOyoqSspsAAAAAGBSym1rDx48iIiIePz4cb169UaPHr1+/fqEhITff/+99EwLC4vFixdfvHixzLMAAAAAUBkp907IHTt2ZGVlvf/++2PHjn3qY8csLCzGjBmzY8cOX19faeIBAAAAgEkp99ra4cOHx44dO2HCBAOfEN2uXbvTp0+bOhUAAAAASEO5be3GjRuhoaGGz7e3t8/IyDBdHgAAAACQknLb2v379x0dHQ2ff+fOHZVKZbo8AAAAACAl5bY1BweHP//80/D58fHxbm5upssDAAAAAFJSbltr1qzZp59+auBjr7OystauXfv666+bOhUAAAAASEO5ba179+5nzpwZMWLE9evXK5554cKF0NDQzMzM4OBgabIBAAAAgKkpdwf/vn37RkdH//rrr++8805QUNBbb73VsmVLV1dXIcSTJ0/y8vLS0tIuXLhw4MCBEydOCCGCgoK4tgYAAACgylBuW6tRo8Znn302dOjQR48e/fzzzz///LP+VLNmzUpMdnNzW7RokbQBAQAAAMCElHsnpBCiZcuWy5Yts7a2rnha3bp116xZ4+zsLE0qAAAAAJCAotuaEOKtt976+uuvmzdvXt6EoKCgffv2lb7aBgAAAACVmnLvhNRr0KDB7t274+Livv/++/Pnz2dkZJiZmbm5ubVq1apfv358Vw0AAABAlVQJ2poQwtzc/M0333zzzTflDgIAAAAAElH6nZAAAAAAUD0pt61ptdply5b17t17wYIFRUVFcscBAAAAAEkp907INWvWrF+/XgiRlJTUrl27N954Q+5EAAAAACAd5V5b27t3r35co0YNGZMAAAAAgPSUe23t7t27kZGRCQkJHTp0CAgIkDsOAAAAAEhKudfWPDw82rZtu3Xr1rFjxxoyf+PGja+88oqpUwEAAACANJTb1gYOHLhixQqtVmvg/IcPHxo+GQAAAAAUTrltbfjw4bVq1Ro5cmRaWpoh85OTk00dCQAAAAAko9zvrZmbmy9dunTLli2DBg1q2bJl165dX3nllZdfftne3t7cvGTJvHnz5tGjR2XJCQAAAACmoNy21q9fP92gZs2acXFxcXFx8uYBAAAAACkpt60lJibKHQEAAAAAZKPc760BAAAAQHWm3GtrQggXF5fVq1c3b97cysqq4pkZGRkDBgzIyMiQJhgAAAAAmJqir6298847/v7+T61qQog6deoEBQWZPhEAAAAASETRbc3Z2dnwyS4uLqZLAgAAAAASU+6dkHv27Klbt67h84cMGfLGG2+YLg8AAAAASEm5ba1FixYVT7h48WL//v2FEBYWFq+88srEiRMDAgIkiQYAAAAAJqfctvZULVq0SEpKEkJoNJrTp09Pnjx5yZIlFDYAAAAAVYOiv7dmIEtLy4CAgMDAwBUrVsidBQAAAACMoxJfW9MrLCw8c+ZMfHz8o0eP5M4CAAAAAMah9Lam0WjWr1+/b9++tLQ0rVZb8WR/f39pUgEAAACAqSm6rWk0mtGjR//yyy+GTHZ0dJw9e7apIwEAAACANBTd1hYuXGhIVbO2th47duzAgQNr1aolQSoAAAAAkIBy21pKSsqOHTvs7e3Hjh3bo0ePunXrqlSqli1bnj592sbGRjdHrVZfuXIlNjY2Pj5+wIAB8gYGAAAAACNSblv7+uuvHR0dd+zY4enpqT9ob2+flZX18ssv6360sbHx9fX19fU9cODApEmTNm7cqFKpZMoLAAAAAMak3B38jx49GhERUbyqCSEcHR3/+uuv0pN79OjRqFGjgwcPSpUOAAAAAExLuW0tNTX1zTffLHHQy8vr1KlTZc4fNGjQrl27TJ8LAAAAAKSg3Lb2+PFjOzu7EgcbN278zTffqNXq0vPr169/+fJlSaIBAAAAgMkpt625urrevXu3xEFfX9/79+9v3Lix9PzU1NT79+9LEg0AAAAATE65bc3d3f3s2bNXr14dM2bMnDlzHj9+LITo2LGjjY3N559/Hh8fX2J+dHS0o6OjDEEBAAAAwASUuyfkG2+8sWXLFktLy3Pnzgkh3N3dw8PDra2tg4KCfvjhh/Hjx7/77rv9+vV7+eWXMzIyYmJi9u/f36FDB7lTAwAAAIBxKLetvfPOO0uXLi0oKND9eO3aNd1g7NixP/74Y2Fh4bp169atW1f8JW3atJE6JQAAAACYhnLvhHRxcYmMjNT/2L59e93Ax8cnNDS09HxLS8v+/ftLFA4AAAAATEy519aEEMOHD2/WrNnRo0cbNGjQq1cv/fHIyMjExMTz588Xnzxx4sSXXnpJ8owAAAAAYBKKbmtCiNatW7du3brEQRsbm//85z8bNmz45ptv0tPTXV1dhw0bFhYWJktCAAAAADAFpbe18tSoUWP8+PHjx4+XOwgAAAAAmIRyv7f2rO7du3fx4kW5UwAAAACAcVSdtrZv3z52GQEAAABQZVSdtpadnS13hBcSFxcXGhoaGhp69uxZubMAAAAAkF9l/d5acYWFhUlJSd9++63cQZ5fZmbm9OnTs7KyhBB3796VOw4AAAAA+Sm3rfn6+j5+/FjuFBKZMWOGrqoBAAAAgI5y74R0cHCQO4JEYmNj4+Pj5U4BAAAAQFmUe23N0dHRwHsCra2ta9WqZeo8JpKSkrJ48WK5UwAAAABQHEW3NSHElClTBg4cWLNmzdITCgoK0tLSEhIStm7d2qdPnwkTJpibK/dSYZm0Wm1ERIRarW7btu2pU6fkjgMAAABAQZRbbxwdHZ2cnMLCwsqsakIIKyurBg0ajBo16ttvv7127drSpUslTvjiVq9e/ccff7i7u8+aNUvuLAAAAACURdFtzdnZ2ZCZdnZ2K1asOHfu3JkzZ0ydyojOnTsXHR2tUqmWLVtmZ2cndxwAAAAAyqLcOyE/+OCDvLw8AyerVKqxY8du3ry5devWJk1lLPn5+ZMnT9Zqte+//76fn196errciQAAAAAoi3Kvrbm5uTVu3Njw+f7+/hcvXjRdHuOaP3/+zZs3/fz8xo0bJ3cWAAAAAEqk3Lb2rKytre/duyd3CoMcOnRo9+7dtra2y5YtU6lUcscBAAAAoERVp61lZWVVim9/ZWZmzpw5Uwgxa9Ysd3d3ueMAAAAAUKiq09aOHDni6ekpd4qnmz59enZ2dvfu3fv16yd3FgAAAADKpdxdRgxUUFBw7969X375ZenSpQMHDpQ7zlNs3749ISGhTp06n3zyidEX9/HxKe/UwYMHjf52MK60tDS5IwDgkwjIj49hpdC9e3e5I1QXym1rvr6+jx8/Nny+SqXq37+/6fKa49C2AAAgAElEQVS8uOvXry9ZssTMzGzx4sW6Z38bV1JSktHXhJS8vLzkjgCATyIgPz6Gylfxn50VXELAs1JuW3NwcLh7967h88eNG9egQQPT5anYzZs3MzMzyzvbsmVLMzOziIgItVodFhbWvn17KbMBAAAAqIyU29YcHR0NaWs1a9b08fH55z//2bNnTwlSlWfhwoU///xzeWf37Nlz7Ngx3QMG7t+/P2fOnBIT7t+/rx9v27bt5MmTQgg/P7/g4GCTxAUAAACgeIpua0KIWbNm9e3bt1Js9lix69ev6wZ79uypeObp06dPnz4thMjOzqatAQAAANWWotta7dq1hw4dKncQg9jY2NSoUaO8sxWcAgAAAIAyKbqtmWIrDhNZvnx5xRP69evXrFmz8s5mZmauX79eN+7Zs6evr68QonHjxkZMCAAAAKByUW5b++CDD/Ly8l58nezs7Nu3b1fQlKTRtm3btm3blnc2PT1d39a6devWo0cPqXIBAAAAUCjlPh3bzc3NKBeX9uzZw7e/AAAAAFQ6ym1rxlLBxvoAAAAAoFhVvK3du3evgo31AQAAAECxlPu9NR6CDgAAAKA6U+61tejo6I4dO5qZmckdRAoWFhb639TS0lLeMAAAAACUQLnX1oKCgoKCgq5evRoWFpaRkWFnZ1d6Q/+ioqK///5blnjG9dJLL126dEnuFAAAAAAURLltTQihVqsXLFhQs2bNKVOmdO3atcxnTJ8+fXrBggX16tVbtWqVhUXJXyctLW3AgAFZWVmS5AUAAAAAo1HunZBCiJkzZ9aqVWvPnj09e/Yss6oJIdq0aRMbG5ufn7948eLSZ+vXr9+5c2cTxwQAAAAA41NuWzt+/PidO3eWLFliY2NT8UwbG5t169YdOXLkypUrpc/WqVPHNAEBAAAAwISU29Z27Ngxbtw4c3ODEtrY2IwePXrnzp2lTw0dOnTPnj3GTgcAAAAApqXctnbx4kU/Pz/D5wcGBh47dqz0cVdX1xYtWhgvFwAAAABIQblt7c6dO/9fe/ceF2P6/w/8aiYxIaQcpiVZCikb6+zjkHzaXRuWHHLMYT/I0lpyPsQ6VZZVlHLa2FQqPkQHLFaxK0ViqIQlnYcUHadpvn/cj9/1uz8z0zTV1Ez1ev513fd93fd1FVcz7/u+7vclEomUr6+vr9808kMCAAAAAAAQTY7WdHV1nz59qnz9jIwMrFQGAAAAAABNhuZGaz179jx16pTy9UNDQ5FQBAAAAAAAmgzNjdaGDx9+69Ytb29vZSpHRUWdOHFi+PDh9d0rAAAAAACAhqG50dp3333H4XAOHTq0du3a3Nzcqqrl5+fv2rXL2dlZLBZPnDixIXsIAAAAAABQf7TV3YEqGRsbz5w5MzAwMDw8/OrVqxMmTLCxsenfv3+nTp0qKytzc3OTkpLu3LkTERFRVlZGCLG2tq5RDkkAAAAAAABNprnRGiFk/fr1cXFxL168KCsru3z58uXLl6uqaWhouH379obsGwAAAAAAQL3S3JmQhBAej+fj49OjRw/F1QwMDHx9fbt06dIgnQIAAAAAAGgIGh2tEUKMjY1DQ0PHjx9fVYVx48ZduHDB3Ny8IXsFAAAAAABQ3zR6JiSjbdu23t7eDx48CAsLu3//flZWlra2dteuXYcPHz5p0qQBAwaou4MAAAAAAACq1wiiNcbAgQMHDhyo7l4AAAAAAAA0EE2fCQkAAAAAANA8IVoDAAAAAADQRI1mJiQhJC8vLyQk5Pbt2y9fvvz06VOHDh369Olja2s7adKkVq1aqbt3AAAAAAAAqqS2aG3WrFklJSVyD3E4HE9Pz27dutE9YrHYx8fH19e3vLyc7hQKhbGxsbGxsYcPH/bw8Bg6dGi9dxoAAAAAAKChqC1as7W19fDwEIvF7J09evQYNGiQkZFRu3bt6E6RSLRy5cqbN29WdamcnBxHR8eNGzfOnz+/HnsMAAAAAADQgNQWrS1cuNDS0vLHH3/Mzc3lcrnffvvtwoUL+/btK1vz559/ZodqXC7X3t5+0qRJpqamXC735cuX4eHhwcHBe/fu7dmz56hRoxrwhwAAAAAAAKgv6nxvzcTERFtb29jY+MCBA/3795dbJyEhITg4mG4aGBj4+fmx18K2sLCwsLCYPXu2k5OTi4vL9evXW7duXe9dBwAAAAAAqGfqzAm5devWFi1anDt3rqpQjRBy7NgxWtbW1pYK1agePXocP35cIpGEhobWS18BAAAAAAAaltqiteTk5Js3bx4+fLh9+/ZV1SkuLo6NjaWb06ZNkxuqMfh8/uLFi69du6bijgIAAAAAAKiD2qK18PDwr7/+2tTUVEGdhw8fikQiuvntt98qvua///3v1NRU1fQPAAAAAABArdQWrcXFxdna2iqu8+DBA1rW0dEZMGCA4vp8Pr+oqEgFnQMAAAAAAFA3tUVrmZmZlpaWiuuwozULC4uWLVsqrl9UVKRgXiUAAAAAAEAjorZo7cOHD/r6+goqiMXixMREujl48OBqrykUCjt06KCCzgEAAAAAAKib2qI1HR2d4uJiBRWSk5PZFZSJ1h49etS1a1cVdA4AAAAAAEDd1BatmZiYCAQCBRWkVsS2srKq9poxMTHVzq4EAAAAAABoFNQWrY0ZM+b333+v6qhIJAoKCqKbQ4YMqXbN6+zs7KtXr1pbW6usiwAAAAAAAOqjtmht1qxZd+7cCQwMlD0kkUg2bNiQl5dH9zg4OFR7wd27d/fp00fBgmwAAAAAAACNiNqitc6dO2/cuNHV1XXfvn2FhYV0f15e3o8//nj58mW6Z8SIEdXm+j9+/PjVq1dXr15dX90FAAAAAABoWNpqbNvBwUEgEJw6dSooKMjKysrQ0DA7O/vBgwfsFbF79+594MABBRcpLi4+ePDg6dOnTUxMvvzyy/rvNQAAAAAAQENQZ7RGCNm1a5epqam7u/vdu3dlj3799dc7d+7U09OT2i8SifLz8//555+YmJjz588LhUJCyKtXr6ZNm3bw4EEzM7OG6DoAAAAAAEB9UnO0RgiZP3++jY1NQEBATEzM69evJRJJ586dBw8ePH36dLl5IIuLiwcPHlxRUSF76MWLF3Pnzr1//3799xoAAAAAAKB+qT9aI4Tw+XwXFxcXFxdlKuvq6ipO/Q8AAAAAANAEqC3LCAAAAAAAACiAaA0AAAAAAEATIVoDAAAAAADQRIjWAAAAAAAANBGiNQAAAAAAAE2EaA0AAAAAAEATIVoDAAAAAADQRIjWAAAAAAAANBGiNQAAAAAAAE2EaA0AAAAAAEATIVoDAAAAAADQRIjWAAAAAAAANBGiNQAAAAAAAE2EaA0AAAAAAEATIVoDAAAAAADQRIjWAAAAAAAANBGiNQAAAAAAAE2kre4ONB1lZWXnzp2LjIx0dXU1NTVV5pSSkpKQkJBHjx7l5OT0799/5MiRX375JY/Hq++uAgAAAACA5kO0pgIlJSWBgYEnTpwQCoWEkPfv3ytz1u3btzdu3MicoqWldf/+/VOnThkbG588efKzzz6r3x4DAAAAAIDGw0zIOikqKvL19R03bpybmxsTdynp5s2bTk5OQqGwe/fu58+ff/z4sa+vL5/Pf/369cyZM5OTk+uvzwAAAAAA0CggWquTpUuX+vj49OjRo0WLFsqfJRAIVq5cKRKJuFyur6+vubl5ixYtxo4de+TIES6XKxQKHR0di4qK6q/boIFsbW3V3QUAwEgEUD8MQwA2RGt1cvDgwXv37gUFBS1atEj5s/bt2ycSiQghs2fP7tmzJ93fr18/GxsbQkh+fv6ZM2dU3lsAAAAAAGhEEK3ViaGhYcuWLQkhVlZWSp7yxx9/xMXFMWV7e3upo3TPyZMn8XgNAAAAAKA5Q7SmGu3atVOyZkBAAFPQ09OTTR1pZWWlpaVFCCkoKMDjNQAAAACA5gzRmmpoayuVXbOkpOT+/ftMeeDAgRyO9O+/bdu2xsbGTBnRGgAAAABAc4ZoTTW4XK4y1f7666/y8nKmzOfz5dYxNzdnCkKhsLCwUCXdAwAAAACARgfRWoNKSEig5fbt28ut07FjR1p++/ZtvfcJAAAAAAA0EqK1BpWXl0fLHTp0kFunTZs2tIxoDQAAAACg2UK01qDev39Py1U9W2vbti0tI1oDAAAAAGi2EK01KGWiNWZJAEZGRka99wkAAAAAADSSUpkMQVUkEgkt6+rqyq1TVlZGyyUlJcpf3MzMrNYdA02Af0EATYCRCKB2GIYAFKK1BqWjo0PLsun7GewIrap322SlpKTUpWMAAAAAAKBpEK1Je/PmjVAorOqohYVFixYtan3xzp0703JxcbHcOrWL1gAAAAAAoIlBtCZt7969N27cqOpoWFhY//79a31xdrRWUFAgtw6iNQAAAAAAIMgy0sC6dOlCy1VFa+xMJFWtoA0AAAAAAE0enq1J4/F47KyMUhQcUkavXr1oOTc3V26dtLQ0ptCqVauBAwfWpTkAAAAAAGi8EK1JO3DgQP1dfNSoUQYGBsx7cfHx8bIVxGLxP//8w5QHDx5cx+AQAAAAAAAaL8yEbFBcLnfKlClMOTExsbS0VKrCmzdvysvLmfKYMWMatHMAAAAAAKBJEK2pRmVlpdyyLHt7e6YgEokePHggdTQmJoYpGBoa0poAAAAAANAMIVpTDfpATKosy8TExMbGhikHBwezD0kkkrCwMKa8cuVKHo+n6m4CAAAAAECjgWhNNXJycmg5KytLceUdO3YwqfmjoqJu3rxJ9x89ejQ5OZkQMmLECDxYAwAAAABo5riurq7q7kMjVlxc/M8//yQkJOzdu/fTp0/MzsTERD6fr6WlxePx5C6lraurO2jQoKtXr5aVld2+fbugoKCiosLX1/fUqVOEkGHDhh09elRHR6dBfxIAAAAAANAwWhKJRN19aMQuXbrk4uJS1VF3d/fJkydXdfT58+c7d+6Mi4uje/T09JYuXTp//nyEagAAAAAAgGgNAAAAAABAE+G9NQAAAAAAAE2EaA0AAAAAAEATIVoDAAAAAADQRIjWAAAAAAAANBGiNQAAAAAAAE2EaA0AAKC5k0gkd+/e9fX1zcvLU3dfAADg/9NWdwcA6iQtLU32u0XXrl179Oih4KyPHz8+efJE7qGOHTuamppW2258fLyrq6ufnx+fz1e6s3J8+vQpOjr65cuX6enpGRkZhBAjIyMjI6NRo0YNHz6cw+EQQoKCgmJiYo4cOaL8ZfPy8tLS0hTXGThwYMuWLZW/5qtXr27dupWamvrmzZtOnTqZmppaWlqOHDlS+SuABsIIUon09PS3b99K7eRyuUOGDKnppQQCQWFhodROfX19MzOz2vdPoYKCgvPnzwcGBr5+/ZoQMmDAAENDw3pqC1QIg1eNLT5//jw2NjYpKendu3fl5eWEEENDw549e44fP97CwkJLS0slHQZgIFqDxu3YsWMRERHM30pKT08vJCREwSdWSkrKxo0bs7KypPbr6+uPGTNm37591bbr7+///PnzwMDANWvW1Krj5MWLF2fOnLl48WJxcTHdyeFwmM/RkydPdu3adfLkyRYWFl5eXi1atKjRxWNjY728vLKzs8VisexRXV3djh07njhxwtjYWJmriUSio0eP+vr6ikQiujMiIoIQMnr06B07dtTxMxvUCCNIJcLCwgICAmSjrKCgICsrK+Wvk5+fP3v27NLSUvbODh06jB492t3dXQUdlbFhw4aIiIiysrL6uDjUKwxetbQYGxvr6en56NEjuUePHj1qbGy8fv368ePH173bAAysjg2NnkQiiYmJ8fb2fvjwId3Zs2fPkJCQNm3aKDjx2bNnZ86cCQsLI4Tw+XwfH58+ffoo02JmZqaNjY1YLNbX1//zzz91dHRq2uezZ8/u3r27oqKCENKuXTsHBwdbW9vu3bvzeLyMjIwXL14EBATExMTQ+rq6uuyfTklFRUVbt269cuUK3dOxY8eDBw8OGTKkRnf+nJ2do6KiqjraunXrsLAwExOTmnYPNARGkKokJiauWLFCKBTSPePHj/f29lb+CocPH/by8qKbfD7/yJEj/fr1U2Uv/9fu3bv19PTCw8OZB2uEkNOnTw8dOrT+WgQVwuBtyBZLSkq2bNly+fJlZtPW1tba2trCwsLIyCgtLU0gEERHR9+5c4c5am1t/csvv+jq6tal5wAMRGvQRIjF4jVr1kRGRtI9Y8eO9fHxYeY2VKWsrGzo0KElJSUbN250dHRUsq39+/cfO3aMKbu7u0+ePFn5fpaVlbm6up4/f57ZnDhx4u7du3k8nmzNe/fubdiwITMzk9kUCATa2jV+GJ6TkzN69Gi66evrO3bs2Bpd4eLFi+vWrSOE8Hi80aNHGxkZvX379t69ewUFBbSOubl5cHBwfT++gHqFEaQSUVFRzs7OdFNLS+vKlSuff/65MueWlpaOGzfu/fv3dM+GDRsWLlyo+l7KCAsL27RpE1P29/cfNmxYAzQKqoLB2wAtvnv3bsGCBc+fPyeEaGtrb9myxcHBQeoiEonk6NGjnp6elZWVhJC+ffseO3YM84qh7pBlBJoILpfr4eHBnpJ369atgwcPKj6rZcuWzF/Sbt26KdlQaWlpSEgI3QwICKhRP3fs2EE/OWbPnv3LL7/I/eQghAwdOvTYsWNt27ZlNmUnWSmjc+fO7JfTlHkngU0sFu/Zs4cQYmdnd/36dU9Pz/Xr13t5eUVFRbGjPoFAEBoaWovugebACFKJvn37sjclEsmJEyeUPPfChQvsUI3U5LdaR5999lnDNAT1AYO3vlssKSlZtmwZE6oRQo4fPy4bqhFCtLS0li9fTt95e/bs2dKlSzHNGOoO0Ro0HS1atJCa++Hn50cnLVSF+evcunVrJVu5fPnyhw8f6OajR48EAoGS50ZFRTEzTwghvXr12rJli+IZib169fr111+ZOuxnWTVCP34IITWdlZGUlPThw4fJkyd7eHgYGBjQ/fr6+j4+PpaWlnRPA0wzg/qGEVR3stPPLl26lJOTU+2JlZWVp06dktqp/G+1jmqUcAg0EAZvvba4efPmpKQkpmxtbT18+HAF17G2tp42bRpTFggErq6uteg8ABuiNWjiNm/erPjjhPnTrHjGCNuZM2ek9ih5fzE3N3fr1q10c+PGjVwut9qzRo0aNWrUKFKH75rsH62mkxXv3Lmjp6e3fft22Q85Doezc+dOuqn8ZzY0LhhBNcL8HnR0dHr37s3sEYlE/v7+1Z54/fr1169fc7lc9utDDZZZTpnfJDQ6zXnwqrDFhIQE9uvfK1asqPY6q1evps2dP38+MTFR+Z4DyEK0Bk3Q4sWL6bec0tJSqff+6yI+Pj45OZnD4Wzbto3uvHLlijKfJcHBwXRyRb9+/ZiPBGXMnTuXNNQ8LikdO3Zcv359VXde+/btSx+4sdNFQmOHEVRHWlpaS5YsoZtBQUEfP35UfAozYfKbb75RS4ZV5b+vg4bD4FV5ix4eHrQ8duzY/v37V3sRQ0PDESNG0E1PT08lWweQC3+goQmaMGHCDz/8QDezsrJWrVqlknDi9OnThJAxY8bMnj2bpr8vLS2t9q0tiURCZ88TQtiZP6o1evTo7t27qyUccnBwsLe3V1CBvvCAJP5NCUaQlPLy8vv37/v7+7u4uPzwww+HDh2Kjo6Wypwu5dtvv+3SpQtTLioqCgwMVFA5ISGBufu+ePHiGnUsLS3t6NGjmzZtWrdu3aFDh27evKnMV/Ps7OyIiIhdu3YtW7Zsz549V65cYZIiMLBUVKOGwavaFtPT09nz/KdOnarkdWxtbWn5zp07sksmACgP661B07RixYrU1NTo6GhmMyEhYefOnT///HNdrpmVlXX9+nVCyLx587S0tObMmcNk4CCEBAYGLly4UMH96b/++osmmyKEKH+fjxDC4XCuXLmimRkX6Q/1xRdfqLcnoFoYQVRaWtpPP/2UkpJC91y7do0Q0qtXLzc3t6putGtray9YsMDNzY3Z9Pf3d3R0rCrdOfNgbeTIkVJJShTIzMzcvHnz3bt3ZQ/NmjVr69atcnPoVVRUbNmy5cKFC4QQDoejpaXFLMnYYC/IQQPA4FVhi7du3WIfVT4fj9TCG3fu3FF86xNAATxbg6ZJS0vLzc2N/QbIuXPnaprASkpgYKBYLP78889HjhxJCPnuu+9odqn09HT2ai2y7t+/z96saWyjo6OjgTe8hUIhTZ8wceJE9XYGVAsjiHHp0qVp06alpKTMnj374sWLISEh//nPf5gvpmlpaTNmzFDwRsrMmTNpjh+hUMjESLJevXp148YNUpMHaw8fPrS3t797926nTp327t179+7dq1evOjs7Mx0LCgqaP3++7EO2wsLCRYsWXbhwgcPhODs7x8XFxcfH79+/n8fjFRUV0WpY16exw+BVYYvx8fHsQ8rPIunduzf7TTmp6wDUCKI1aLJ4PJ63t7e+vj7ds3v37ri4uNpdrays7Ny5c4SQefPmMXv09PTs7OxoBcWfhexZEG3bttXMB2U1Rb+nWltb05wK0GRgBGVmZm7durW0tHTbtm3bt2/v06ePpaXlmjVrXFxcmApisXjr1q3M4ylZrVu3njVrFt08ceIEe8IhdfLkSYlE0rdvX+Z7cLUKCwtXrlz57t07Ho939uzZqVOnduzY0djY2MnJiSZtT0hImDt3LrMcMKOysnLhwoX37t0jhGzfvt3Jyalt27a6urp2dnaHDx9ugJXooCE188GrwhbZdz14PF6HDh2UPFFHR4ddOS8vr9Z9AEC0Bk2ZkZGRp6cn/SIiFotXrVqVkZFRi0tduXIlPz9fT09vypQpdCfzOjIjJiYmPT29qtPZHx7K/7nXZBKJxM/PjxCio6OzceNGdXcH6kUzH0Hu7u6lpaWDBg2aM2cOe/+iRYsGDBjAlFNTUyMiIqq6woIFC+g3xdevXzNTKNmEQuHFixdJTR6s7d69m/nmN2fOHKmVsr766qsxY8Yw5VevXp09e5YeCg8Pf/LkCSGkd+/eM2bMYJ81atQoehY0Gc158KqwRXa01rVr1xqdy15T4d27d3XpBjRziNagiRs8ePCWLVvoZn5+/vLly0tKSmp6nd9//50QYm9vz15b08zMbNCgQUy5srJSQSIB9oJLenp6NW1dA0VGRj569IgQ4ujo2L17d3V3B+pLsx1BAoEgMjKSEDJhwgTZozRaI4QkJydXdRFDQ8NJkybRzePHj0tVCAgIKCsr4/P533zzjTK9ys3NDQ8PZ8o2NjayFZYtW0bLR44c+fTpEyGkvLz8119/ZXauXLlS9hUjRGtNUrMdvCpssbS0lJarWlm7Kq1ataJlxUmJABRDtAZNn4ODg4ODA91MSUlZv359jd7NePDggUAg4HA4UrfYyf/eXwwNDWX/ZWdjf2CUlZUp37RmEolEBw4cIISYm5uz849Bk9Q8RxBdDHffvn1WMpj8eIwXL14ouA47o3pSUhJ7NlpJSQkzhWzhwoVKrnh26dIlOvHSwsJCtsLAgQOtrKyY8ocPH5h0duHh4TTpgtyzzM3NlWkdGp3mOXhV2GK7du1oOTs7u0bnslcSb9++fV26Ac0cpqpDs7Bly5YXL17Q70nR0dHe3t7KrHHJYJYEtbS01NHRyc3NZR/64osvWrZsyXweFBQUXLlyZdq0abJXMDY2Zp5EEULev39f6x+EEPLmzRsFSbotLCwa4K0Ab2/v9PR0AwMDb2/vli1b1ndzoHbNcAS9fv2a2WNjY0PzlcvVs2dPBUc///zzcePGMXlECCF+fn5DhgxhyqGhoQUFBXp6esoni/vrr7+YQps2bap62czS0pLmHE9LS/vXv/7FzIEkhGhra9N1BdjYWRw0MKER1EUzHLwqbJE9kfLdu3elpaXsJ2YKiMVi9rtq7HcIAWoK0Ro0C9ra2p6envb29m/fvmX2eHl5mZmZyZ1KJCUnJ4dJhZyYmPivf/1LceWAgAC5H1cmJia0nJ+fLxaLlbyVLmvv3r30m5+ssLAwZdburIvbt2/7+Pi0aNHCy8tL7jc/aHqa4Qii0drYsWOnT59eu7YYS5YsoS3GxMSkpKSYmZmJxeLffvuNEDJ79mxdXV0lL0V//+wMIlKMjIxomXnul5aWxmx26tQJC2E3N81w8KqwRamU/VlZWeyLK5CXl8fOP9SjR4/adQCAIFqD5qNDhw4+Pj4zZ84sLi4mhEgkEhcXFybPlWJBQUFisdjAwKCqLMCVlZU3b95k5pYIBILExETZmux785WVlQkJCfT+euPy8uXLNWvWEEJ27do1cOBAdXcHGk5zG0F06uCbN2/qeKlBgwZZWVnR513Hjh3bv3//1atX3759q6OjQ/PsKYM+WCgtLS0sLJT7Tg47yTjz3OPly5fMZkFBQe1+BGjUmtvgVWGLw4YNYy//nZGRoWS0JrUctpIZXwHkQrQGzYipqam7u/vKlSuZj5bi4uLly5crnsFfXl4eHBxMCPnhhx/Ys/+lLF68ODY2likHBATIflxZWVlxuVx6p+3GjRu1/vDg8XgKJh+qZF5icnIyn8+X/SKYm5u7ePHiwsLCDRs2sJODQTPRrEaQgYEBU3j69GntGmJbvHgxfcMzIiJi9erVTMaRKVOm0IaU0alTJyZxCCEkJydHbrTGviCTxY5mOCgqKqoqxoOmrVkNXhW2OHz4cA6HQ9feePr0qZJrbdOH84SQNm3a0IwsALWAGRHQvEyYMGHlypV0Mz09nU4OkSsiIuLdu3dSmYtlsV+2joqKkp0oz+fzp06dSjejo6NrlCHq8ePHvr6+TPnAgQNJVav7umeZmZlTp06lU6eowsLCJUuWZGZmLl26dOHChXVsBRqp5jOC6Myl2NhY+lhMVkhIyIYNG6rtwPjx4+kFxWLxsmXLnjx5oqWltWjRIuV/CvK/78hVFUYWFhbSMvOQgT0Li8XP3GgAAAhvSURBVP0lUq6qlo+Dxq75DF4VtmhgYPDVV1/RQ/7+/kqmLWGvQTdv3jwdHR3lOwAgBdEaNDtOTk62trZKVmYyv02bNk1x6t4xY8bQ2e3l5eUhISFy26X5PzIzM+mHQbVycnKcnJzoO9P1zc/Pr127dlL3RwsLCx0dHVNSUhwcHH766Se5Jz5//ryoqKhB+gjq1ExGEHu+k4eHh9w6FRUV3t7eyiwtzeFw2IFZamoqIcTa2lrJWVVUr169aPm///2v3Dp0tiSXyx03bhz53xiPvQibXHKX8IamoZkMXtW26OTkRFPvCIVCZWaQxsbG0qSybdq0wf1NqCNEa9CkMHeFFd8b1tLScnNz69OnT7VXi42NFQgEhBDZzMVSOBwOe8HZ06dPy95+4/P57Mxvfn5+zMUVKy0tdXJyEovFP//8c7WV5WJnIxCJRIorJyQkBAcHW1tbs1MRfPz4cdGiRQKBYNKkSdu2bZN7YlRUlJ2dXUJCQu06CRoCI4iiefAJIQkJCWvXrpVNUL5t27bMzEx2tgbmVyc3BYjspMfvv/9ethr7ly97HXt7exoc/v3331LvxjCYUJAQMnLkSCYTXb9+/ejRixcvKn68VlUedtBwGLz11GLv3r2XLl1KN48fP17tJ6mPjw8t79mzh70MAEAtIFqDJuXjx4/kfycCycXj8Xx8fKrNqOvt7U0IMTMz69atW7VNs9fArer229q1a+m6RuXl5XPnzr1586aCa2ZnZ8+bN+/Jkyd79uzp2LFjtX2Qi77lQlg33eW6cePGihUrKisr2d8+P3z44Ojo+PjxY2Nj43nz5j179kzw/yQlJcXHx0dFRa1evfqnn35q167diBEjatdJ0BAYQZS5ubmdnR3dDA8PnzVrVnR0tFAoFIvFT548Wb58eVhYmLGxMfu/PfMLFIvFTDoHtpYtW7LnjDHrtsm2y1yBIfsP0a1bN5qgsrKy0s3NTerVo5KSkvPnzxNCuFzujz/+yOycMWMG8wIb07fVq1dL/Sn4+++/aTkjI0POrwM0HgZv/bXo7OxM04RkZ2d7eHhU9QhaLBa7u7vHx8czm0uWLFH+YSZAVRCtQdORl5fHLG+SnJxcbWU+n+/l5aVgClNgYCDzpEjxYkqUoaEhexmWX3/9VfYGdps2bY4fP07nPhUXFzs5OW3atEn2/RPmK9fUqVOfPn26a9eusWPHKtMHWSkpKez5+keOHMnMzCwpKRGLxZWVlRUVFYWFhVlZWbGxsZs2bVq+fHl+fr6uri79WMrNzZ0zZw6zWNPr16+nT58+lWX69Olz5sxxdnaOiIgQi8UTJ05UZkoYaCyMICkuLi7sOWDPnj1btWrVyJEj+/fvP23atBs3bnA4HDc3N/YbKfT+vdzf4Zw5c2iy/iVLlshWEIlE7FdG5b6ZtmLFChp6RUZGenp60kOVlZUeHh7M93VHR0f6VZXH461bt47dyenTp0dGRubn5z9//tzV1dXd3Z0e/e233/z8/Hbu3FmjNZRBvTB4ZamwRQ6Hc+TIEWtra2bT399/+fLl7BsrjPz8/EWLFp04cYLZdHJycnFxqV3nAdi08OcYGruKiors7OyXL18ePHiQ+Susq6trZ2dnZ2dnZmamOPtZcHAwM7XvzJkzNGfU48ePr127durUKSbO0dHRcXZ2HjRoUJ8+feRO3y8uLk5JSQkNDWXn+SWE6OnpffPNN5MmTZJKBlVYWLhv376wsDD2TlNTUxMTk65du4pEoqysrLi4uE+fPunp6Xl5eQ0bNqymv5OysrKcnJyUlJR9+/Ypfo9c1ldffXXo0CFCSEZGxoIFC9LT05U88dy5cwMGDKhpV0HtMIIUiImJWbt27YcPH2QPcTic9evXOzo6Mj9CdnZ2UlLS3r17mcp8Pn/KlClff/119+7d2V9kd+/effr0aRMTk8jISPoyjEQiycrKevPmzbFjx2h6PUJIq1atJk6caGdnZ25uzv6HyMvLW7p0KY0Mhw0bZm1t3apVq8jISGb57Llz527atElqjSkPDw8mEaUsPp9PVywghHC53PHjxx84cIC++QOaCYO3WipsUSwWHzp06OTJk8xMyK5du44cOdLS0tLIyCg1NfXRo0dxcXFMkhV9ff1NmzaxH84D1AWiNWj0/vjjDycnJ7mHxowZ4+fnp/j0HTt2nD17lv1xNWrUKOYmpRQfHx96a40tOjp61apVVV3f2Nj46tWrsvvv3bsXEBDw559/yn1LpEuXLrNmzZoxY0btZoD4+/vv2bOnFicSQvbv3898xoSGhm7evFnJs6r6MUHzYQQplp2dvXbt2vv377N3Ghoa/vLLL0OHDmU2mRhM7unr1q1bvHgx3WTec3N1dWW/6pOamqr4i93QoUOlrl9SUrJ169br16+XlJSw9zPv2FR1tWvXrm3atIk9WU5bW3vt2rVDhgxhcugZGhrOmDFj5syZnTt3VtAf0BAYvEpSYYvp6emHDx++fv06+y0D9qUmT578/ffft23bVgX9BiCEIFoDEIvFFy5cGD9+fIcOHRq+9eLi4vj4+Ozs7Nzc3I8fPxoYGPD5fCMjIwsLC6n74gCaqZmMIKFQmJSUlJycbGBgYG5ubmZmpgnzfsVicWpqamJiYn5+vpGRUc+ePS0sLBSfUlFRkZyc/PDhw7KyMktLSwsLCx6Pl5+ff/r0aVNT0wkTJmjCzwUNo5kM3vposaKiIj4+/tWrV0Kh8OPHj+3bt+/UqVOfPn369+9fHz2HZg7RGgAAAAAAgCZClhEAAAAAAABNhGgNAAAAAABAEyFaAwAAAAAA0ESI1gAAAAAAADQRojUAAAAAAABNhGgNAAAAAABAEyFaAwAAAAAA0ESI1gAAAAAAADQRojUAAAAAAABN9H/GzEqFE4/PTQAAAABJRU5ErkJggg==;clipPath=inset(0% 8.33% 80.6% 8%);" parent="3tAOK4Fq8SH2DW3hNeqI-8" vertex="1">
          <mxGeometry x="93.11000000000001" width="976.77" height="101.17533166009324" as="geometry" />
        </mxCell>
        <mxCell id="3tAOK4Fq8SH2DW3hNeqI-6" value="" style="shape=tape;whiteSpace=wrap;html=1;size=0.4;" parent="3tAOK4Fq8SH2DW3hNeqI-8" vertex="1">
          <mxGeometry x="152" y="109" width="904" height="20.82" as="geometry" />
        </mxCell>
        <mxCell id="3tAOK4Fq8SH2DW3hNeqI-16" value="Untitled Layer" style="" parent="0" />
        <mxCell id="3tAOK4Fq8SH2DW3hNeqI-17" value="" style="rounded=0;whiteSpace=wrap;html=1;strokeColor=none;" parent="3tAOK4Fq8SH2DW3hNeqI-16" vertex="1">
          <mxGeometry x="439" y="780" width="120" height="60" as="geometry" />
        </mxCell>
        <mxCell id="3tAOK4Fq8SH2DW3hNeqI-27" value="" style="rounded=0;whiteSpace=wrap;html=1;strokeColor=none;" parent="3tAOK4Fq8SH2DW3hNeqI-16" vertex="1">
          <mxGeometry x="310" y="800" width="120" height="500" as="geometry" />
        </mxCell>
        <mxCell id="3tAOK4Fq8SH2DW3hNeqI-9" value="Untitled Layer" style="" parent="0" />
        <mxCell id="3tAOK4Fq8SH2DW3hNeqI-10" value="&lt;span style=&quot;background-color: rgb(255, 255, 255); font-size: 46px;&quot;&gt;&lt;font face=&quot;Times New Roman&quot; style=&quot;font-size: 46px;&quot;&gt;Square Root of Tracking ISE&lt;/font&gt;&lt;/span&gt;" style="text;html=1;align=center;verticalAlign=middle;resizable=0;points=[];autosize=1;strokeColor=none;fillColor=none;rotation=-90;fontSize=46;" parent="3tAOK4Fq8SH2DW3hNeqI-9" vertex="1">
          <mxGeometry x="60" y="1032" width="560" height="70" as="geometry" />
        </mxCell>
        <mxCell id="3tAOK4Fq8SH2DW3hNeqI-11" value="&lt;span style=&quot;background-color: rgb(255, 255, 255); font-size: 46px;&quot;&gt;&lt;font face=&quot;Times New Roman&quot; style=&quot;font-size: 46px;&quot;&gt;NAC-L2&lt;/font&gt;&lt;/span&gt;" style="text;html=1;align=center;verticalAlign=middle;resizable=0;points=[];autosize=1;strokeColor=none;fillColor=none;rotation=0;fontSize=46;" parent="3tAOK4Fq8SH2DW3hNeqI-9" vertex="1">
          <mxGeometry x="495" y="1270" width="190" height="70" as="geometry" />
        </mxCell>
        <mxCell id="3tAOK4Fq8SH2DW3hNeqI-12" value="&lt;span style=&quot;background-color: rgb(255, 255, 255); font-size: 46px;&quot;&gt;&lt;font face=&quot;Times New Roman&quot; style=&quot;font-size: 46px;&quot;&gt;NAC-eMod&lt;/font&gt;&lt;/span&gt;" style="text;html=1;align=center;verticalAlign=middle;resizable=0;points=[];autosize=1;strokeColor=none;fillColor=none;rotation=0;fontSize=46;" parent="3tAOK4Fq8SH2DW3hNeqI-9" vertex="1">
          <mxGeometry x="779" y="1270" width="240" height="70" as="geometry" />
        </mxCell>
        <mxCell id="3tAOK4Fq8SH2DW3hNeqI-13" value="&lt;font face=&quot;Times New Roman&quot;&gt;&lt;span style=&quot;background-color: rgb(255, 255, 255);&quot;&gt;NAC-CO&lt;/span&gt;&lt;/font&gt;" style="text;html=1;align=center;verticalAlign=middle;resizable=0;points=[];autosize=1;strokeColor=none;fillColor=none;rotation=0;fontSize=46;" parent="3tAOK4Fq8SH2DW3hNeqI-9" vertex="1">
          <mxGeometry x="1100" y="1270" width="200" height="70" as="geometry" />
        </mxCell>
        <mxCell id="3tAOK4Fq8SH2DW3hNeqI-26" value="&lt;font face=&quot;Times New Roman&quot; style=&quot;font-size: 41px;&quot;&gt;&lt;span style=&quot;background-color: rgb(255, 255, 255); font-size: 41px;&quot;&gt;$$\times 10^{-3}$$&lt;/span&gt;&lt;/font&gt;" style="text;html=1;align=center;verticalAlign=middle;resizable=0;points=[];autosize=1;strokeColor=none;fillColor=none;rotation=0;fontSize=41;" parent="3tAOK4Fq8SH2DW3hNeqI-9" vertex="1">
          <mxGeometry x="330" y="795" width="350" height="60" as="geometry" />
        </mxCell>
        <mxCell id="3tAOK4Fq8SH2DW3hNeqI-28" value="&lt;font face=&quot;Times New Roman&quot; style=&quot;font-size: 41px;&quot;&gt;&lt;span style=&quot;background-color: rgb(255, 255, 255); font-size: 41px;&quot;&gt;2&lt;/span&gt;&lt;/font&gt;" style="text;html=1;align=center;verticalAlign=middle;resizable=0;points=[];autosize=1;strokeColor=none;fillColor=none;rotation=0;fontSize=41;" parent="3tAOK4Fq8SH2DW3hNeqI-9" vertex="1">
          <mxGeometry x="390" y="821" width="40" height="60" as="geometry" />
        </mxCell>
        <mxCell id="3tAOK4Fq8SH2DW3hNeqI-29" value="&lt;font face=&quot;Times New Roman&quot; style=&quot;font-size: 41px;&quot;&gt;&lt;span style=&quot;background-color: rgb(255, 255, 255); font-size: 41px;&quot;&gt;0.5&lt;/span&gt;&lt;/font&gt;" style="text;html=1;align=center;verticalAlign=middle;resizable=0;points=[];autosize=1;strokeColor=none;fillColor=none;rotation=0;fontSize=41;" parent="3tAOK4Fq8SH2DW3hNeqI-9" vertex="1">
          <mxGeometry x="375" y="991" width="70" height="60" as="geometry" />
        </mxCell>
        <mxCell id="3tAOK4Fq8SH2DW3hNeqI-30" value="&lt;font face=&quot;Times New Roman&quot; style=&quot;font-size: 41px;&quot;&gt;&lt;span style=&quot;background-color: rgb(255, 255, 255); font-size: 41px;&quot;&gt;0.4&lt;/span&gt;&lt;/font&gt;" style="text;html=1;align=center;verticalAlign=middle;resizable=0;points=[];autosize=1;strokeColor=none;fillColor=none;rotation=0;fontSize=41;" parent="3tAOK4Fq8SH2DW3hNeqI-9" vertex="1">
          <mxGeometry x="375" y="1078" width="70" height="60" as="geometry" />
        </mxCell>
        <mxCell id="3tAOK4Fq8SH2DW3hNeqI-31" value="&lt;font face=&quot;Times New Roman&quot; style=&quot;font-size: 41px;&quot;&gt;&lt;span style=&quot;background-color: rgb(255, 255, 255); font-size: 41px;&quot;&gt;0.3&lt;/span&gt;&lt;/font&gt;" style="text;html=1;align=center;verticalAlign=middle;resizable=0;points=[];autosize=1;strokeColor=none;fillColor=none;rotation=0;fontSize=41;" parent="3tAOK4Fq8SH2DW3hNeqI-9" vertex="1">
          <mxGeometry x="374" y="1156" width="70" height="60" as="geometry" />
        </mxCell>
        <mxCell id="3tAOK4Fq8SH2DW3hNeqI-32" value="&lt;font face=&quot;Times New Roman&quot; style=&quot;font-size: 41px;&quot;&gt;&lt;span style=&quot;background-color: rgb(255, 255, 255); font-size: 41px;&quot;&gt;0.2&lt;/span&gt;&lt;/font&gt;" style="text;html=1;align=center;verticalAlign=middle;resizable=0;points=[];autosize=1;strokeColor=none;fillColor=none;rotation=0;fontSize=41;" parent="3tAOK4Fq8SH2DW3hNeqI-9" vertex="1">
          <mxGeometry x="374" y="1238" width="70" height="60" as="geometry" />
        </mxCell>
        <mxCell id="3tAOK4Fq8SH2DW3hNeqI-33" value="&lt;font face=&quot;Times New Roman&quot; style=&quot;font-size: 41px;&quot;&gt;&lt;span style=&quot;background-color: rgb(255, 255, 255); font-size: 41px;&quot;&gt;0.6&lt;/span&gt;&lt;/font&gt;" style="text;html=1;align=center;verticalAlign=middle;resizable=0;points=[];autosize=1;strokeColor=none;fillColor=none;rotation=0;fontSize=41;" parent="3tAOK4Fq8SH2DW3hNeqI-9" vertex="1">
          <mxGeometry x="375" y="910" width="70" height="60" as="geometry" />
        </mxCell>
      </root>
    </mxGraphModel>
  </diagram>
</mxfile>
